<?xml version="1.0" encoding="utf-8" standalone="no"?>
<!DOCTYPE svg PUBLIC "-//W3C//DTD SVG 1.1//EN"
  "http://www.w3.org/Graphics/SVG/1.1/DTD/svg11.dtd">
<!-- Created with matplotlib (https://matplotlib.org/) -->
<svg height="266.582344pt" version="1.1" viewBox="0 0 398.907875 266.582344" width="398.907875pt" xmlns="http://www.w3.org/2000/svg" xmlns:xlink="http://www.w3.org/1999/xlink">
 <metadata>
  <rdf:RDF xmlns:cc="http://creativecommons.org/ns#" xmlns:dc="http://purl.org/dc/elements/1.1/" xmlns:rdf="http://www.w3.org/1999/02/22-rdf-syntax-ns#">
   <cc:Work>
    <dc:type rdf:resource="http://purl.org/dc/dcmitype/StillImage"/>
    <dc:date>2020-09-23T15:39:16.228515</dc:date>
    <dc:format>image/svg+xml</dc:format>
    <dc:creator>
     <cc:Agent>
      <dc:title>Matplotlib v3.3.1, https://matplotlib.org/</dc:title>
     </cc:Agent>
    </dc:creator>
   </cc:Work>
  </rdf:RDF>
 </metadata>
 <defs>
  <style type="text/css">*{stroke-linecap:butt;stroke-linejoin:round;}</style>
 </defs>
 <g id="figure_1">
  <g id="patch_1">
   <path d="M 0 266.582344 
L 398.907875 266.582344 
L 398.907875 0 
L 0 0 
z
" style="fill:#ffffff;"/>
  </g>
  <g id="axes_1">
   <g id="patch_2">
    <path d="M 56.907875 242.1175 
L 391.707875 242.1175 
L 391.707875 24.6775 
L 56.907875 24.6775 
z
" style="fill:#ffffff;"/>
   </g>
   <g id="QuadMesh_1">
    <path clip-path="url(#p182a36052b)" d="M 56.907875 24.6775 
L 98.757875 24.6775 
L 98.757875 60.9175 
L 56.907875 60.9175 
L 56.907875 24.6775 
" style="fill:#5a5a5a;"/>
    <path clip-path="url(#p182a36052b)" d="M 98.757875 24.6775 
L 140.607875 24.6775 
L 140.607875 60.9175 
L 98.757875 60.9175 
L 98.757875 24.6775 
" style="fill:#fefefe;"/>
    <path clip-path="url(#p182a36052b)" d="M 140.607875 24.6775 
L 182.457875 24.6775 
L 182.457875 60.9175 
L 140.607875 60.9175 
L 140.607875 24.6775 
" style="fill:#d6d6d6;"/>
    <path clip-path="url(#p182a36052b)" d="M 182.457875 24.6775 
L 224.307875 24.6775 
L 224.307875 60.9175 
L 182.457875 60.9175 
L 182.457875 24.6775 
" style="fill:#fefefe;"/>
    <path clip-path="url(#p182a36052b)" d="M 224.307875 24.6775 
L 266.157875 24.6775 
L 266.157875 60.9175 
L 224.307875 60.9175 
L 224.307875 24.6775 
" style="fill:#fefefe;"/>
    <path clip-path="url(#p182a36052b)" d="M 266.157875 24.6775 
L 308.007875 24.6775 
L 308.007875 60.9175 
L 266.157875 60.9175 
L 266.157875 24.6775 
" style="fill:#fefefe;"/>
    <path clip-path="url(#p182a36052b)" d="M 308.007875 24.6775 
L 349.857875 24.6775 
L 349.857875 60.9175 
L 308.007875 60.9175 
L 308.007875 24.6775 
" style="fill:#fefefe;"/>
    <path clip-path="url(#p182a36052b)" d="M 349.857875 24.6775 
L 391.707875 24.6775 
L 391.707875 60.9175 
L 349.857875 60.9175 
L 349.857875 24.6775 
" style="fill:#fefefe;"/>
    <path clip-path="url(#p182a36052b)" d="M 56.907875 60.9175 
L 98.757875 60.9175 
L 98.757875 97.1575 
L 56.907875 97.1575 
L 56.907875 60.9175 
" style="fill:#d6d6d6;"/>
    <path clip-path="url(#p182a36052b)" d="M 98.757875 60.9175 
L 140.607875 60.9175 
L 140.607875 97.1575 
L 98.757875 97.1575 
L 98.757875 60.9175 
" style="fill:#9f9f9f;"/>
    <path clip-path="url(#p182a36052b)" d="M 140.607875 60.9175 
L 182.457875 60.9175 
L 182.457875 97.1575 
L 140.607875 97.1575 
L 140.607875 60.9175 
" style="fill:#d6d6d6;"/>
    <path clip-path="url(#p182a36052b)" d="M 182.457875 60.9175 
L 224.307875 60.9175 
L 224.307875 97.1575 
L 182.457875 97.1575 
L 182.457875 60.9175 
" style="fill:#d6d6d6;"/>
    <path clip-path="url(#p182a36052b)" d="M 224.307875 60.9175 
L 266.157875 60.9175 
L 266.157875 97.1575 
L 224.307875 97.1575 
L 224.307875 60.9175 
" style="fill:#d6d6d6;"/>
    <path clip-path="url(#p182a36052b)" d="M 266.157875 60.9175 
L 308.007875 60.9175 
L 308.007875 97.1575 
L 266.157875 97.1575 
L 266.157875 60.9175 
" style="fill:#fefefe;"/>
    <path clip-path="url(#p182a36052b)" d="M 308.007875 60.9175 
L 349.857875 60.9175 
L 349.857875 97.1575 
L 308.007875 97.1575 
L 308.007875 60.9175 
" style="fill:#fefefe;"/>
    <path clip-path="url(#p182a36052b)" d="M 349.857875 60.9175 
L 391.707875 60.9175 
L 391.707875 97.1575 
L 349.857875 97.1575 
L 349.857875 60.9175 
" style="fill:#fefefe;"/>
    <path clip-path="url(#p182a36052b)" d="M 56.907875 97.1575 
L 98.757875 97.1575 
L 98.757875 133.3975 
L 56.907875 133.3975 
L 56.907875 97.1575 
" style="fill:#fefefe;"/>
    <path clip-path="url(#p182a36052b)" d="M 98.757875 97.1575 
L 140.607875 97.1575 
L 140.607875 133.3975 
L 98.757875 133.3975 
L 98.757875 97.1575 
" style="fill:#fefefe;"/>
    <path clip-path="url(#p182a36052b)" d="M 140.607875 97.1575 
L 182.457875 97.1575 
L 182.457875 133.3975 
L 140.607875 133.3975 
L 140.607875 97.1575 
" style="fill:#fefefe;"/>
    <path clip-path="url(#p182a36052b)" d="M 182.457875 97.1575 
L 224.307875 97.1575 
L 224.307875 133.3975 
L 182.457875 133.3975 
L 182.457875 97.1575 
" style="fill:#d6d6d6;"/>
    <path clip-path="url(#p182a36052b)" d="M 224.307875 97.1575 
L 266.157875 97.1575 
L 266.157875 133.3975 
L 224.307875 133.3975 
L 224.307875 97.1575 
" style="fill:#d6d6d6;"/>
    <path clip-path="url(#p182a36052b)" d="M 266.157875 97.1575 
L 308.007875 97.1575 
L 308.007875 133.3975 
L 266.157875 133.3975 
L 266.157875 97.1575 
" style="fill:#fefefe;"/>
    <path clip-path="url(#p182a36052b)" d="M 308.007875 97.1575 
L 349.857875 97.1575 
L 349.857875 133.3975 
L 308.007875 133.3975 
L 308.007875 97.1575 
" style="fill:#fefefe;"/>
    <path clip-path="url(#p182a36052b)" d="M 349.857875 97.1575 
L 391.707875 97.1575 
L 391.707875 133.3975 
L 349.857875 133.3975 
L 349.857875 97.1575 
" style="fill:#fefefe;"/>
    <path clip-path="url(#p182a36052b)" d="M 56.907875 133.3975 
L 98.757875 133.3975 
L 98.757875 169.6375 
L 56.907875 169.6375 
L 56.907875 133.3975 
" style="fill:#fefefe;"/>
    <path clip-path="url(#p182a36052b)" d="M 98.757875 133.3975 
L 140.607875 133.3975 
L 140.607875 169.6375 
L 98.757875 169.6375 
L 98.757875 133.3975 
" style="fill:#fefefe;"/>
    <path clip-path="url(#p182a36052b)" d="M 140.607875 133.3975 
L 182.457875 133.3975 
L 182.457875 169.6375 
L 140.607875 169.6375 
L 140.607875 133.3975 
" style="fill:#fefefe;"/>
    <path clip-path="url(#p182a36052b)" d="M 182.457875 133.3975 
L 224.307875 133.3975 
L 224.307875 169.6375 
L 182.457875 169.6375 
L 182.457875 133.3975 
" style="fill:#fefefe;"/>
    <path clip-path="url(#p182a36052b)" d="M 224.307875 133.3975 
L 266.157875 133.3975 
L 266.157875 169.6375 
L 224.307875 169.6375 
L 224.307875 133.3975 
" style="fill:#fefefe;"/>
    <path clip-path="url(#p182a36052b)" d="M 266.157875 133.3975 
L 308.007875 133.3975 
L 308.007875 169.6375 
L 266.157875 169.6375 
L 266.157875 133.3975 
" style="fill:#d6d6d6;"/>
    <path clip-path="url(#p182a36052b)" d="M 308.007875 133.3975 
L 349.857875 133.3975 
L 349.857875 169.6375 
L 308.007875 169.6375 
L 308.007875 133.3975 
" style="fill:#fefefe;"/>
    <path clip-path="url(#p182a36052b)" d="M 349.857875 133.3975 
L 391.707875 133.3975 
L 391.707875 169.6375 
L 349.857875 169.6375 
L 349.857875 133.3975 
" style="fill:#fefefe;"/>
    <path clip-path="url(#p182a36052b)" d="M 56.907875 169.6375 
L 98.757875 169.6375 
L 98.757875 205.8775 
L 56.907875 205.8775 
L 56.907875 169.6375 
" style="fill:#fefefe;"/>
    <path clip-path="url(#p182a36052b)" d="M 98.757875 169.6375 
L 140.607875 169.6375 
L 140.607875 205.8775 
L 98.757875 205.8775 
L 98.757875 169.6375 
" style="fill:#d6d6d6;"/>
    <path clip-path="url(#p182a36052b)" d="M 140.607875 169.6375 
L 182.457875 169.6375 
L 182.457875 205.8775 
L 140.607875 205.8775 
L 140.607875 169.6375 
" style="fill:#d6d6d6;"/>
    <path clip-path="url(#p182a36052b)" d="M 182.457875 169.6375 
L 224.307875 169.6375 
L 224.307875 205.8775 
L 182.457875 205.8775 
L 182.457875 169.6375 
" style="fill:#d6d6d6;"/>
    <path clip-path="url(#p182a36052b)" d="M 224.307875 169.6375 
L 266.157875 169.6375 
L 266.157875 205.8775 
L 224.307875 205.8775 
L 224.307875 169.6375 
" style="fill:#fefefe;"/>
    <path clip-path="url(#p182a36052b)" d="M 266.157875 169.6375 
L 308.007875 169.6375 
L 308.007875 205.8775 
L 266.157875 205.8775 
L 266.157875 169.6375 
" style="fill:#fefefe;"/>
    <path clip-path="url(#p182a36052b)" d="M 308.007875 169.6375 
L 349.857875 169.6375 
L 349.857875 205.8775 
L 308.007875 205.8775 
L 308.007875 169.6375 
" style="fill:#fefefe;"/>
    <path clip-path="url(#p182a36052b)" d="M 349.857875 169.6375 
L 391.707875 169.6375 
L 391.707875 205.8775 
L 349.857875 205.8775 
L 349.857875 169.6375 
" style="fill:#fefefe;"/>
    <path clip-path="url(#p182a36052b)" d="M 56.907875 205.8775 
L 98.757875 205.8775 
L 98.757875 242.1175 
L 56.907875 242.1175 
L 56.907875 205.8775 
" style="fill:#fefefe;"/>
    <path clip-path="url(#p182a36052b)" d="M 98.757875 205.8775 
L 140.607875 205.8775 
L 140.607875 242.1175 
L 98.757875 242.1175 
L 98.757875 205.8775 
" style="fill:#d6d6d6;"/>
    <path clip-path="url(#p182a36052b)" d="M 140.607875 205.8775 
L 182.457875 205.8775 
L 182.457875 242.1175 
L 140.607875 242.1175 
L 140.607875 205.8775 
" style="fill:#d6d6d6;"/>
    <path clip-path="url(#p182a36052b)" d="M 182.457875 205.8775 
L 224.307875 205.8775 
L 224.307875 242.1175 
L 182.457875 242.1175 
L 182.457875 205.8775 
" style="fill:#d6d6d6;"/>
    <path clip-path="url(#p182a36052b)" d="M 224.307875 205.8775 
L 266.157875 205.8775 
L 266.157875 242.1175 
L 224.307875 242.1175 
L 224.307875 205.8775 
" style="fill:#9f9f9f;"/>
    <path clip-path="url(#p182a36052b)" d="M 266.157875 205.8775 
L 308.007875 205.8775 
L 308.007875 242.1175 
L 266.157875 242.1175 
L 266.157875 205.8775 
" style="fill:#5a5a5a;"/>
    <path clip-path="url(#p182a36052b)" d="M 308.007875 205.8775 
L 349.857875 205.8775 
L 349.857875 242.1175 
L 308.007875 242.1175 
L 308.007875 205.8775 
" style="fill:#1a1a1a;"/>
    <path clip-path="url(#p182a36052b)" d="M 349.857875 205.8775 
L 391.707875 205.8775 
L 391.707875 242.1175 
L 349.857875 242.1175 
L 349.857875 205.8775 
" style="fill:#1a1a1a;"/>
   </g>
   <g id="matplotlib.axis_1">
    <g id="xtick_1">
     <g id="line2d_1"/>
     <g id="text_1">
      <!-- 1 -->
      <g style="fill:#262626;" transform="translate(74.329484 256.756031)scale(0.126 -0.126)">
       <defs>
        <path d="M 9.578125 49.515625 
L 9.578125 56.25 
Q 19.09375 57.171875 22.84375 59.34375 
Q 26.609375 61.53125 28.46875 69.625 
L 35.40625 69.625 
L 35.40625 0 
L 26.03125 0 
L 26.03125 49.515625 
z
" id="Helvetica-49"/>
       </defs>
       <use xlink:href="#Helvetica-49"/>
      </g>
     </g>
    </g>
    <g id="xtick_2">
     <g id="line2d_2"/>
     <g id="text_2">
      <!-- 2 -->
      <g style="fill:#262626;" transform="translate(116.179484 256.756031)scale(0.126 -0.126)">
       <defs>
        <path d="M 3.125 0 
Q 3.609375 9.03125 6.859375 15.71875 
Q 10.109375 22.40625 19.53125 27.875 
L 28.90625 33.296875 
Q 35.203125 36.96875 37.75 39.546875 
Q 41.75 43.609375 41.75 48.828125 
Q 41.75 54.9375 38.078125 58.515625 
Q 34.421875 62.109375 28.328125 62.109375 
Q 19.28125 62.109375 15.828125 55.28125 
Q 13.96875 51.609375 13.765625 45.125 
L 4.828125 45.125 
Q 4.984375 54.25 8.203125 60.015625 
Q 13.921875 70.171875 28.375 70.171875 
Q 40.375 70.171875 45.921875 63.671875 
Q 51.46875 57.171875 51.46875 49.21875 
Q 51.46875 40.828125 45.5625 34.859375 
Q 42.140625 31.390625 33.296875 26.46875 
L 26.609375 22.75 
Q 21.828125 20.125 19.09375 17.71875 
Q 14.203125 13.484375 12.9375 8.296875 
L 51.125 8.296875 
L 51.125 0 
L 3.125 0 
z
" id="Helvetica-50"/>
       </defs>
       <use xlink:href="#Helvetica-50"/>
      </g>
     </g>
    </g>
    <g id="xtick_3">
     <g id="line2d_3"/>
     <g id="text_3">
      <!-- 3 -->
      <g style="fill:#262626;" transform="translate(158.029484 256.756031)scale(0.126 -0.126)">
       <defs>
        <path d="M 25.984375 -1.90625 
Q 13.578125 -1.90625 7.984375 4.90625 
Q 2.390625 11.71875 2.390625 21.484375 
L 11.578125 21.484375 
Q 12.15625 14.703125 14.109375 11.625 
Q 17.53125 6.109375 26.46875 6.109375 
Q 33.40625 6.109375 37.59375 9.8125 
Q 41.796875 13.53125 41.796875 19.390625 
Q 41.796875 26.609375 37.375 29.484375 
Q 32.953125 32.375 25.09375 32.375 
Q 24.21875 32.375 23.3125 32.34375 
Q 22.40625 32.328125 21.484375 32.28125 
L 21.484375 40.046875 
Q 22.859375 39.890625 23.78125 39.84375 
Q 24.703125 39.796875 25.78125 39.796875 
Q 30.71875 39.796875 33.890625 41.359375 
Q 39.453125 44.09375 39.453125 51.125 
Q 39.453125 56.34375 35.734375 59.171875 
Q 32.03125 62.015625 27.09375 62.015625 
Q 18.3125 62.015625 14.9375 56.15625 
Q 13.09375 52.9375 12.84375 46.96875 
L 4.15625 46.96875 
Q 4.15625 54.78125 7.28125 60.25 
Q 12.640625 70.015625 26.171875 70.015625 
Q 36.859375 70.015625 42.71875 65.25 
Q 48.578125 60.5 48.578125 51.46875 
Q 48.578125 45.015625 45.125 41.015625 
Q 42.96875 38.53125 39.546875 37.109375 
Q 45.0625 35.59375 48.15625 31.265625 
Q 51.265625 26.953125 51.265625 20.703125 
Q 51.265625 10.6875 44.671875 4.390625 
Q 38.09375 -1.90625 25.984375 -1.90625 
z
" id="Helvetica-51"/>
       </defs>
       <use xlink:href="#Helvetica-51"/>
      </g>
     </g>
    </g>
    <g id="xtick_4">
     <g id="line2d_4"/>
     <g id="text_4">
      <!-- 4 -->
      <g style="fill:#262626;" transform="translate(199.879484 256.756031)scale(0.126 -0.126)">
       <defs>
        <path d="M 33.0625 24.75 
L 33.0625 56.453125 
L 10.640625 24.75 
z
M 33.203125 0 
L 33.203125 17.09375 
L 2.546875 17.09375 
L 2.546875 25.6875 
L 34.578125 70.125 
L 42 70.125 
L 42 24.75 
L 52.296875 24.75 
L 52.296875 17.09375 
L 42 17.09375 
L 42 0 
z
" id="Helvetica-52"/>
       </defs>
       <use xlink:href="#Helvetica-52"/>
      </g>
     </g>
    </g>
    <g id="xtick_5">
     <g id="line2d_5"/>
     <g id="text_5">
      <!-- 5 -->
      <g style="fill:#262626;" transform="translate(241.729484 256.756031)scale(0.126 -0.126)">
       <defs>
        <path d="M 12.359375 17.828125 
Q 13.234375 10.296875 19.34375 7.421875 
Q 22.46875 5.953125 26.5625 5.953125 
Q 34.375 5.953125 38.125 10.9375 
Q 41.890625 15.921875 41.890625 21.96875 
Q 41.890625 29.296875 37.421875 33.296875 
Q 32.953125 37.3125 26.703125 37.3125 
Q 22.171875 37.3125 18.921875 35.546875 
Q 15.671875 33.796875 13.375 30.671875 
L 5.765625 31.109375 
L 11.078125 68.75 
L 47.40625 68.75 
L 47.40625 60.25 
L 17.671875 60.25 
L 14.703125 40.828125 
Q 17.140625 42.671875 19.34375 43.609375 
Q 23.25 45.21875 28.375 45.21875 
Q 37.984375 45.21875 44.671875 39.015625 
Q 51.375 32.8125 51.375 23.296875 
Q 51.375 13.375 45.234375 5.796875 
Q 39.109375 -1.765625 25.6875 -1.765625 
Q 17.140625 -1.765625 10.5625 3.046875 
Q 4 7.859375 3.21875 17.828125 
z
" id="Helvetica-53"/>
       </defs>
       <use xlink:href="#Helvetica-53"/>
      </g>
     </g>
    </g>
    <g id="xtick_6">
     <g id="line2d_6"/>
     <g id="text_6">
      <!-- 6 -->
      <g style="fill:#262626;" transform="translate(283.579484 256.756031)scale(0.126 -0.126)">
       <defs>
        <path d="M 29.25 70.21875 
Q 40.96875 70.21875 45.578125 64.140625 
Q 50.203125 58.0625 50.203125 51.609375 
L 41.5 51.609375 
Q 40.71875 55.765625 39.015625 58.109375 
Q 35.84375 62.5 29.390625 62.5 
Q 22.015625 62.5 17.671875 55.6875 
Q 13.328125 48.875 12.84375 36.1875 
Q 15.875 40.625 20.453125 42.828125 
Q 24.65625 44.78125 29.828125 44.78125 
Q 38.625 44.78125 45.15625 39.15625 
Q 51.703125 33.546875 51.703125 22.40625 
Q 51.703125 12.890625 45.5 5.53125 
Q 39.3125 -1.8125 27.828125 -1.8125 
Q 18.015625 -1.8125 10.890625 5.640625 
Q 3.765625 13.09375 3.765625 30.71875 
Q 3.765625 43.75 6.9375 52.828125 
Q 13.03125 70.21875 29.25 70.21875 
z
M 28.609375 6 
Q 35.546875 6 38.984375 10.65625 
Q 42.4375 15.328125 42.4375 21.6875 
Q 42.4375 27.046875 39.359375 31.90625 
Q 36.28125 36.765625 28.171875 36.765625 
Q 22.515625 36.765625 18.234375 33 
Q 13.96875 29.25 13.96875 21.6875 
Q 13.96875 15.046875 17.84375 10.515625 
Q 21.734375 6 28.609375 6 
z
" id="Helvetica-54"/>
       </defs>
       <use xlink:href="#Helvetica-54"/>
      </g>
     </g>
    </g>
    <g id="xtick_7">
     <g id="line2d_7"/>
     <g id="text_7">
      <!-- 7 -->
      <g style="fill:#262626;" transform="translate(325.429484 256.756031)scale(0.126 -0.126)">
       <defs>
        <path d="M 52.296875 68.75 
L 52.296875 61.078125 
Q 48.921875 57.8125 43.328125 49.703125 
Q 37.75 41.609375 33.453125 32.234375 
Q 29.203125 23.09375 27 15.578125 
Q 25.59375 10.75 23.34375 0 
L 13.625 0 
Q 16.9375 20.015625 28.265625 39.84375 
Q 34.96875 51.46875 42.328125 59.90625 
L 3.65625 59.90625 
L 3.65625 68.75 
z
" id="Helvetica-55"/>
       </defs>
       <use xlink:href="#Helvetica-55"/>
      </g>
     </g>
    </g>
    <g id="xtick_8">
     <g id="line2d_8"/>
     <g id="text_8">
      <!-- 8 -->
      <g style="fill:#262626;" transform="translate(367.279484 256.756031)scale(0.126 -0.126)">
       <defs>
        <path d="M 27.203125 40.625 
Q 33.015625 40.625 36.28125 43.875 
Q 39.546875 47.125 39.546875 51.609375 
Q 39.546875 55.515625 36.421875 58.78125 
Q 33.296875 62.0625 26.90625 62.0625 
Q 20.5625 62.0625 17.71875 58.78125 
Q 14.890625 55.515625 14.890625 51.125 
Q 14.890625 46.1875 18.546875 43.40625 
Q 22.21875 40.625 27.203125 40.625 
z
M 27.734375 6 
Q 33.84375 6 37.859375 9.296875 
Q 41.890625 12.59375 41.890625 19.140625 
Q 41.890625 25.921875 37.734375 29.4375 
Q 33.59375 32.953125 27.09375 32.953125 
Q 20.796875 32.953125 16.8125 29.359375 
Q 12.84375 25.78125 12.84375 19.4375 
Q 12.84375 13.96875 16.484375 9.984375 
Q 20.125 6 27.734375 6 
z
M 15.234375 37.25 
Q 11.578125 38.8125 9.515625 40.921875 
Q 5.671875 44.828125 5.671875 51.078125 
Q 5.671875 58.890625 11.328125 64.5 
Q 17 70.125 27.390625 70.125 
Q 37.453125 70.125 43.15625 64.8125 
Q 48.875 59.515625 48.875 52.4375 
Q 48.875 45.90625 45.5625 41.84375 
Q 43.703125 39.546875 39.796875 37.359375 
Q 44.140625 35.359375 46.625 32.765625 
Q 51.265625 27.875 51.265625 20.0625 
Q 51.265625 10.84375 45.0625 4.421875 
Q 38.875 -2 27.546875 -2 
Q 17.328125 -2 10.265625 3.53125 
Q 3.21875 9.078125 3.21875 19.625 
Q 3.21875 25.828125 6.25 30.34375 
Q 9.28125 34.859375 15.234375 37.25 
z
" id="Helvetica-56"/>
       </defs>
       <use xlink:href="#Helvetica-56"/>
      </g>
     </g>
    </g>
   </g>
   <g id="matplotlib.axis_2">
    <g id="ytick_1">
     <g id="line2d_9"/>
     <g id="text_9">
      <!-- main -->
      <g style="fill:#262626;" transform="translate(23.999344 47.316766)scale(0.126 -0.126)">
       <defs>
        <path d="M 6.453125 52.296875 
L 15.140625 52.296875 
L 15.140625 44.875 
Q 18.265625 48.734375 20.796875 50.484375 
Q 25.140625 53.46875 30.671875 53.46875 
Q 36.921875 53.46875 40.71875 50.390625 
Q 42.875 48.640625 44.625 45.21875 
Q 47.5625 49.421875 51.515625 51.4375 
Q 55.46875 53.46875 60.40625 53.46875 
Q 70.953125 53.46875 74.75 45.84375 
Q 76.8125 41.75 76.8125 34.8125 
L 76.8125 0 
L 67.671875 0 
L 67.671875 36.328125 
Q 67.671875 41.546875 65.0625 43.5 
Q 62.453125 45.453125 58.6875 45.453125 
Q 53.515625 45.453125 49.78125 41.984375 
Q 46.046875 38.53125 46.046875 30.421875 
L 46.046875 0 
L 37.109375 0 
L 37.109375 34.125 
Q 37.109375 39.453125 35.84375 41.890625 
Q 33.84375 45.5625 28.375 45.5625 
Q 23.390625 45.5625 19.3125 41.703125 
Q 15.234375 37.84375 15.234375 27.734375 
L 15.234375 0 
L 6.453125 0 
z
" id="Helvetica-109"/>
        <path d="M 13.1875 13.921875 
Q 13.1875 10.109375 15.96875 7.90625 
Q 18.75 5.71875 22.5625 5.71875 
Q 27.203125 5.71875 31.546875 7.859375 
Q 38.875 11.421875 38.875 19.53125 
L 38.875 26.609375 
Q 37.25 25.59375 34.703125 24.90625 
Q 32.171875 24.21875 29.734375 23.921875 
L 24.421875 23.25 
Q 19.625 22.609375 17.234375 21.234375 
Q 13.1875 18.953125 13.1875 13.921875 
z
M 34.46875 31.6875 
Q 37.5 32.078125 38.53125 34.234375 
Q 39.109375 35.40625 39.109375 37.59375 
Q 39.109375 42.09375 35.90625 44.109375 
Q 32.71875 46.140625 26.765625 46.140625 
Q 19.875 46.140625 17 42.4375 
Q 15.375 40.375 14.890625 36.328125 
L 6.6875 36.328125 
Q 6.9375 46 12.96875 49.78125 
Q 19 53.5625 26.953125 53.5625 
Q 36.1875 53.5625 41.9375 50.046875 
Q 47.65625 46.53125 47.65625 39.109375 
L 47.65625 8.984375 
Q 47.65625 7.625 48.21875 6.78125 
Q 48.78125 5.953125 50.59375 5.953125 
Q 51.171875 5.953125 51.90625 6.03125 
Q 52.640625 6.109375 53.46875 6.25 
L 53.46875 -0.25 
Q 51.421875 -0.828125 50.34375 -0.96875 
Q 49.265625 -1.125 47.40625 -1.125 
Q 42.875 -1.125 40.828125 2.09375 
Q 39.75 3.8125 39.3125 6.9375 
Q 36.625 3.421875 31.59375 0.828125 
Q 26.5625 -1.765625 20.515625 -1.765625 
Q 13.234375 -1.765625 8.609375 2.65625 
Q 4 7.078125 4 13.71875 
Q 4 21 8.546875 25 
Q 13.09375 29 20.453125 29.9375 
z
M 27.203125 53.5625 
z
" id="Helvetica-97"/>
        <path d="M 6.453125 52.046875 
L 15.375 52.046875 
L 15.375 0 
L 6.453125 0 
z
M 6.453125 71.734375 
L 15.375 71.734375 
L 15.375 61.765625 
L 6.453125 61.765625 
z
" id="Helvetica-105"/>
        <path d="M 6.453125 52.296875 
L 14.796875 52.296875 
L 14.796875 44.875 
Q 18.5 49.46875 22.65625 51.46875 
Q 26.8125 53.46875 31.890625 53.46875 
Q 43.015625 53.46875 46.921875 45.703125 
Q 49.078125 41.453125 49.078125 33.546875 
L 49.078125 0 
L 40.140625 0 
L 40.140625 32.953125 
Q 40.140625 37.75 38.71875 40.671875 
Q 36.375 45.5625 30.21875 45.5625 
Q 27.09375 45.5625 25.09375 44.921875 
Q 21.484375 43.84375 18.75 40.625 
Q 16.546875 38.03125 15.890625 35.265625 
Q 15.234375 32.515625 15.234375 27.390625 
L 15.234375 0 
L 6.453125 0 
z
M 27.09375 53.5625 
z
" id="Helvetica-110"/>
       </defs>
       <use xlink:href="#Helvetica-109"/>
       <use x="83.300781" xlink:href="#Helvetica-97"/>
       <use x="138.916016" xlink:href="#Helvetica-105"/>
       <use x="161.132812" xlink:href="#Helvetica-110"/>
      </g>
     </g>
    </g>
    <g id="ytick_2">
     <g id="line2d_10"/>
     <g id="text_10">
      <!-- catalog -->
      <g style="fill:#262626;" transform="translate(10.68075 83.556766)scale(0.126 -0.126)">
       <defs>
        <path d="M 26.609375 53.8125 
Q 35.453125 53.8125 40.984375 49.515625 
Q 46.53125 45.21875 47.65625 34.71875 
L 39.109375 34.71875 
Q 38.328125 39.546875 35.546875 42.75 
Q 32.765625 45.953125 26.609375 45.953125 
Q 18.21875 45.953125 14.59375 37.75 
Q 12.25 32.421875 12.25 24.609375 
Q 12.25 16.75 15.5625 11.375 
Q 18.890625 6 26.03125 6 
Q 31.5 6 34.6875 9.34375 
Q 37.890625 12.703125 39.109375 18.5 
L 47.65625 18.5 
Q 46.1875 8.109375 40.328125 3.296875 
Q 34.46875 -1.515625 25.34375 -1.515625 
Q 15.09375 -1.515625 8.984375 5.984375 
Q 2.875 13.484375 2.875 24.703125 
Q 2.875 38.484375 9.5625 46.140625 
Q 16.265625 53.8125 26.609375 53.8125 
z
M 25.25 53.5625 
z
" id="Helvetica-99"/>
        <path d="M 8.203125 66.890625 
L 17.09375 66.890625 
L 17.09375 52.296875 
L 25.4375 52.296875 
L 25.4375 45.125 
L 17.09375 45.125 
L 17.09375 10.984375 
Q 17.09375 8.25 18.953125 7.328125 
Q 19.96875 6.78125 22.359375 6.78125 
Q 23 6.78125 23.734375 6.8125 
Q 24.46875 6.84375 25.4375 6.9375 
L 25.4375 0 
Q 23.921875 -0.4375 22.28125 -0.625 
Q 20.65625 -0.828125 18.75 -0.828125 
Q 12.59375 -0.828125 10.390625 2.3125 
Q 8.203125 5.46875 8.203125 10.5 
L 8.203125 45.125 
L 1.125 45.125 
L 1.125 52.296875 
L 8.203125 52.296875 
z
" id="Helvetica-116"/>
        <path d="M 6.6875 71.734375 
L 15.484375 71.734375 
L 15.484375 0 
L 6.6875 0 
z
" id="Helvetica-108"/>
        <path d="M 27.203125 5.671875 
Q 35.9375 5.671875 39.1875 12.28125 
Q 42.4375 18.890625 42.4375 27 
Q 42.4375 34.328125 40.09375 38.921875 
Q 36.375 46.140625 27.296875 46.140625 
Q 19.234375 46.140625 15.578125 39.984375 
Q 11.921875 33.84375 11.921875 25.140625 
Q 11.921875 16.796875 15.578125 11.234375 
Q 19.234375 5.671875 27.203125 5.671875 
z
M 27.546875 53.8125 
Q 37.640625 53.8125 44.625 47.0625 
Q 51.609375 40.328125 51.609375 27.25 
Q 51.609375 14.59375 45.453125 6.34375 
Q 39.3125 -1.90625 26.375 -1.90625 
Q 15.578125 -1.90625 9.21875 5.390625 
Q 2.875 12.703125 2.875 25 
Q 2.875 38.1875 9.5625 46 
Q 16.265625 53.8125 27.546875 53.8125 
z
M 27.25 53.5625 
z
" id="Helvetica-111"/>
        <path d="M 24.90625 53.21875 
Q 31.0625 53.21875 35.640625 50.203125 
Q 38.140625 48.484375 40.71875 45.21875 
L 40.71875 51.8125 
L 48.828125 51.8125 
L 48.828125 4.25 
Q 48.828125 -5.71875 45.90625 -11.46875 
Q 40.4375 -22.125 25.25 -22.125 
Q 16.796875 -22.125 11.03125 -18.328125 
Q 5.28125 -14.546875 4.59375 -6.5 
L 13.53125 -6.5 
Q 14.15625 -10.015625 16.0625 -11.921875 
Q 19.046875 -14.84375 25.4375 -14.84375 
Q 35.546875 -14.84375 38.671875 -7.71875 
Q 40.53125 -3.515625 40.375 7.28125 
Q 37.75 3.265625 34.03125 1.3125 
Q 30.328125 -0.640625 24.21875 -0.640625 
Q 15.71875 -0.640625 9.34375 5.390625 
Q 2.984375 11.421875 2.984375 25.34375 
Q 2.984375 38.484375 9.40625 45.84375 
Q 15.828125 53.21875 24.90625 53.21875 
z
M 40.71875 26.375 
Q 40.71875 36.078125 36.71875 40.765625 
Q 32.71875 45.453125 26.515625 45.453125 
Q 17.234375 45.453125 13.8125 36.765625 
Q 12.015625 32.125 12.015625 24.609375 
Q 12.015625 15.765625 15.59375 11.15625 
Q 19.1875 6.546875 25.25 6.546875 
Q 34.71875 6.546875 38.578125 15.09375 
Q 40.71875 19.921875 40.71875 26.375 
z
M 25.921875 53.5625 
z
" id="Helvetica-103"/>
       </defs>
       <use xlink:href="#Helvetica-99"/>
       <use x="50" xlink:href="#Helvetica-97"/>
       <use x="105.615234" xlink:href="#Helvetica-116"/>
       <use x="133.398438" xlink:href="#Helvetica-97"/>
       <use x="189.013672" xlink:href="#Helvetica-108"/>
       <use x="211.230469" xlink:href="#Helvetica-111"/>
       <use x="266.845703" xlink:href="#Helvetica-103"/>
      </g>
     </g>
    </g>
    <g id="ytick_3">
     <g id="line2d_11"/>
     <g id="text_11">
      <!-- cart -->
      <g style="fill:#262626;" transform="translate(30.30525 119.796766)scale(0.126 -0.126)">
       <defs>
        <path d="M 6.6875 52.296875 
L 15.046875 52.296875 
L 15.046875 43.265625 
Q 16.0625 45.90625 20.0625 49.6875 
Q 24.078125 53.46875 29.296875 53.46875 
Q 29.546875 53.46875 30.125 53.421875 
Q 30.71875 53.375 32.125 53.21875 
L 32.125 43.953125 
Q 31.34375 44.09375 30.6875 44.140625 
Q 30.03125 44.1875 29.25 44.1875 
Q 22.609375 44.1875 19.046875 39.90625 
Q 15.484375 35.640625 15.484375 30.078125 
L 15.484375 0 
L 6.6875 0 
z
" id="Helvetica-114"/>
       </defs>
       <use xlink:href="#Helvetica-99"/>
       <use x="50" xlink:href="#Helvetica-97"/>
       <use x="105.615234" xlink:href="#Helvetica-114"/>
       <use x="138.916016" xlink:href="#Helvetica-116"/>
      </g>
     </g>
    </g>
    <g id="ytick_4">
     <g id="line2d_12"/>
     <g id="text_12">
      <!-- order -->
      <g style="fill:#262626;" transform="translate(21.896719 156.036766)scale(0.126 -0.126)">
       <defs>
        <path d="M 12.015625 25.53125 
Q 12.015625 17.140625 15.578125 11.46875 
Q 19.140625 5.8125 27 5.8125 
Q 33.109375 5.8125 37.03125 11.0625 
Q 40.96875 16.3125 40.96875 26.125 
Q 40.96875 36.03125 36.90625 40.796875 
Q 32.859375 45.5625 26.90625 45.5625 
Q 20.265625 45.5625 16.140625 40.484375 
Q 12.015625 35.40625 12.015625 25.53125 
z
M 25.25 53.21875 
Q 31.25 53.21875 35.296875 50.6875 
Q 37.640625 49.21875 40.625 45.5625 
L 40.625 71.96875 
L 49.078125 71.96875 
L 49.078125 0 
L 41.15625 0 
L 41.15625 7.28125 
Q 38.09375 2.4375 33.890625 0.28125 
Q 29.6875 -1.859375 24.265625 -1.859375 
Q 15.53125 -1.859375 9.125 5.484375 
Q 2.734375 12.84375 2.734375 25.046875 
Q 2.734375 36.46875 8.5625 44.84375 
Q 14.40625 53.21875 25.25 53.21875 
z
" id="Helvetica-100"/>
        <path d="M 28.21875 53.46875 
Q 33.796875 53.46875 39.015625 50.859375 
Q 44.234375 48.25 46.96875 44.09375 
Q 49.609375 40.140625 50.484375 34.859375 
Q 51.265625 31.25 51.265625 23.34375 
L 12.9375 23.34375 
Q 13.1875 15.375 16.703125 10.5625 
Q 20.21875 5.765625 27.59375 5.765625 
Q 34.46875 5.765625 38.578125 10.296875 
Q 40.921875 12.9375 41.890625 16.40625 
L 50.53125 16.40625 
Q 50.203125 13.53125 48.265625 9.984375 
Q 46.34375 6.453125 43.953125 4.203125 
Q 39.9375 0.296875 34.03125 -1.078125 
Q 30.859375 -1.859375 26.859375 -1.859375 
Q 17.09375 -1.859375 10.296875 5.25 
Q 3.515625 12.359375 3.515625 25.140625 
Q 3.515625 37.75 10.34375 45.609375 
Q 17.1875 53.46875 28.21875 53.46875 
z
M 42.234375 30.328125 
Q 41.703125 36.03125 39.75 39.453125 
Q 36.140625 45.796875 27.6875 45.796875 
Q 21.625 45.796875 17.515625 41.421875 
Q 13.421875 37.0625 13.1875 30.328125 
z
M 27.390625 53.5625 
z
" id="Helvetica-101"/>
       </defs>
       <use xlink:href="#Helvetica-111"/>
       <use x="55.615234" xlink:href="#Helvetica-114"/>
       <use x="88.916016" xlink:href="#Helvetica-100"/>
       <use x="144.53125" xlink:href="#Helvetica-101"/>
       <use x="200.146484" xlink:href="#Helvetica-114"/>
      </g>
     </g>
    </g>
    <g id="ytick_5">
     <g id="line2d_13"/>
     <g id="text_13">
      <!-- product -->
      <g style="fill:#262626;" transform="translate(9.284906 192.291531)scale(0.126 -0.126)">
       <defs>
        <path d="M 28.515625 5.90625 
Q 34.671875 5.90625 38.75 11.0625 
Q 42.828125 16.21875 42.828125 26.46875 
Q 42.828125 32.71875 41.015625 37.203125 
Q 37.59375 45.84375 28.515625 45.84375 
Q 19.390625 45.84375 16.015625 36.71875 
Q 14.203125 31.84375 14.203125 24.3125 
Q 14.203125 18.265625 16.015625 14.015625 
Q 19.4375 5.90625 28.515625 5.90625 
z
M 5.765625 52.046875 
L 14.3125 52.046875 
L 14.3125 45.125 
Q 16.9375 48.6875 20.0625 50.640625 
Q 24.515625 53.5625 30.515625 53.5625 
Q 39.40625 53.5625 45.609375 46.75 
Q 51.8125 39.9375 51.8125 27.296875 
Q 51.8125 10.203125 42.875 2.875 
Q 37.203125 -1.765625 29.6875 -1.765625 
Q 23.78125 -1.765625 19.78125 0.828125 
Q 17.4375 2.296875 14.546875 5.859375 
L 14.546875 -20.84375 
L 5.765625 -20.84375 
z
" id="Helvetica-112"/>
        <path d="M 15.234375 52.296875 
L 15.234375 17.578125 
Q 15.234375 13.578125 16.5 11.03125 
Q 18.84375 6.34375 25.25 6.34375 
Q 34.421875 6.34375 37.75 14.546875 
Q 39.546875 18.953125 39.546875 26.609375 
L 39.546875 52.296875 
L 48.34375 52.296875 
L 48.34375 0 
L 40.046875 0 
L 40.140625 7.71875 
Q 38.421875 4.734375 35.890625 2.6875 
Q 30.859375 -1.421875 23.6875 -1.421875 
Q 12.5 -1.421875 8.453125 6.0625 
Q 6.25 10.0625 6.25 16.75 
L 6.25 52.296875 
z
M 27.296875 53.5625 
z
" id="Helvetica-117"/>
       </defs>
       <use xlink:href="#Helvetica-112"/>
       <use x="55.615234" xlink:href="#Helvetica-114"/>
       <use x="88.916016" xlink:href="#Helvetica-111"/>
       <use x="144.53125" xlink:href="#Helvetica-100"/>
       <use x="200.146484" xlink:href="#Helvetica-117"/>
       <use x="255.761719" xlink:href="#Helvetica-99"/>
       <use x="305.761719" xlink:href="#Helvetica-116"/>
      </g>
     </g>
    </g>
    <g id="ytick_6">
     <g id="line2d_14"/>
     <g id="text_14">
      <!-- ENDED -->
      <g style="fill:#262626;" transform="translate(7.2 228.516766)scale(0.126 -0.126)">
       <defs>
        <path d="M 8.546875 71.734375 
L 60.84375 71.734375 
L 60.84375 62.9375 
L 18.015625 62.9375 
L 18.015625 41.15625 
L 57.625 41.15625 
L 57.625 32.859375 
L 18.015625 32.859375 
L 18.015625 8.546875 
L 61.578125 8.546875 
L 61.578125 0 
L 8.546875 0 
z
M 35.0625 71.734375 
z
" id="Helvetica-69"/>
        <path d="M 7.625 71.734375 
L 19.09375 71.734375 
L 55.328125 13.625 
L 55.328125 71.734375 
L 64.546875 71.734375 
L 64.546875 0 
L 53.65625 0 
L 16.890625 58.0625 
L 16.890625 0 
L 7.625 0 
z
M 35.453125 71.734375 
z
" id="Helvetica-78"/>
        <path d="M 35.15625 8.296875 
Q 40.09375 8.296875 43.265625 9.328125 
Q 48.921875 11.234375 52.546875 16.65625 
Q 55.421875 21 56.6875 27.78125 
Q 57.421875 31.84375 57.421875 35.296875 
Q 57.421875 48.640625 52.125 56 
Q 46.828125 63.375 35.0625 63.375 
L 17.828125 63.375 
L 17.828125 8.296875 
z
M 8.0625 71.734375 
L 37.109375 71.734375 
Q 51.90625 71.734375 60.0625 61.234375 
Q 67.328125 51.765625 67.328125 36.96875 
Q 67.328125 25.53125 63.03125 16.3125 
Q 55.46875 0 37.015625 0 
L 8.0625 0 
z
" id="Helvetica-68"/>
       </defs>
       <use xlink:href="#Helvetica-69"/>
       <use x="66.699219" xlink:href="#Helvetica-78"/>
       <use x="138.916016" xlink:href="#Helvetica-68"/>
       <use x="211.132812" xlink:href="#Helvetica-69"/>
       <use x="277.832031" xlink:href="#Helvetica-68"/>
      </g>
     </g>
    </g>
   </g>
   <g id="text_15">
    <!-- 0.75 -->
    <g style="fill:#ffffff;" transform="translate(68.102406 45.342031)scale(0.1 -0.1)">
     <defs>
      <path d="M 27.046875 69.921875 
Q 40.625 69.921875 46.6875 58.734375 
Q 51.375 50.09375 51.375 35.0625 
Q 51.375 20.796875 47.125 11.46875 
Q 40.96875 -1.90625 27 -1.90625 
Q 14.40625 -1.90625 8.25 9.03125 
Q 3.125 18.171875 3.125 33.546875 
Q 3.125 45.453125 6.203125 54 
Q 11.96875 69.921875 27.046875 69.921875 
z
M 26.953125 6.109375 
Q 33.796875 6.109375 37.84375 12.15625 
Q 41.890625 18.21875 41.890625 34.71875 
Q 41.890625 46.625 38.953125 54.3125 
Q 36.03125 62.015625 27.59375 62.015625 
Q 19.828125 62.015625 16.234375 54.703125 
Q 12.640625 47.40625 12.640625 33.203125 
Q 12.640625 22.515625 14.9375 16.015625 
Q 18.453125 6.109375 26.953125 6.109375 
z
" id="Helvetica-48"/>
      <path d="M 8.546875 10.640625 
L 18.75 10.640625 
L 18.75 0 
L 8.546875 0 
z
" id="Helvetica-46"/>
     </defs>
     <use xlink:href="#Helvetica-48"/>
     <use x="55.615234" xlink:href="#Helvetica-46"/>
     <use x="83.398438" xlink:href="#Helvetica-55"/>
     <use x="139.013672" xlink:href="#Helvetica-53"/>
    </g>
   </g>
   <g id="text_16">
    <!-- 0.00 -->
    <g style="fill:#262626;" transform="translate(109.952406 45.342031)scale(0.1 -0.1)">
     <use xlink:href="#Helvetica-48"/>
     <use x="55.615234" xlink:href="#Helvetica-46"/>
     <use x="83.398438" xlink:href="#Helvetica-48"/>
     <use x="139.013672" xlink:href="#Helvetica-48"/>
    </g>
   </g>
   <g id="text_17">
    <!-- 0.25 -->
    <g style="fill:#262626;" transform="translate(151.802406 45.342031)scale(0.1 -0.1)">
     <use xlink:href="#Helvetica-48"/>
     <use x="55.615234" xlink:href="#Helvetica-46"/>
     <use x="83.398438" xlink:href="#Helvetica-50"/>
     <use x="139.013672" xlink:href="#Helvetica-53"/>
    </g>
   </g>
   <g id="text_18">
    <!-- 0.00 -->
    <g style="fill:#262626;" transform="translate(193.652406 45.342031)scale(0.1 -0.1)">
     <use xlink:href="#Helvetica-48"/>
     <use x="55.615234" xlink:href="#Helvetica-46"/>
     <use x="83.398438" xlink:href="#Helvetica-48"/>
     <use x="139.013672" xlink:href="#Helvetica-48"/>
    </g>
   </g>
   <g id="text_19">
    <!-- 0.00 -->
    <g style="fill:#262626;" transform="translate(235.502406 45.342031)scale(0.1 -0.1)">
     <use xlink:href="#Helvetica-48"/>
     <use x="55.615234" xlink:href="#Helvetica-46"/>
     <use x="83.398438" xlink:href="#Helvetica-48"/>
     <use x="139.013672" xlink:href="#Helvetica-48"/>
    </g>
   </g>
   <g id="text_20">
    <!-- 0.00 -->
    <g style="fill:#262626;" transform="translate(277.352406 45.342031)scale(0.1 -0.1)">
     <use xlink:href="#Helvetica-48"/>
     <use x="55.615234" xlink:href="#Helvetica-46"/>
     <use x="83.398438" xlink:href="#Helvetica-48"/>
     <use x="139.013672" xlink:href="#Helvetica-48"/>
    </g>
   </g>
   <g id="text_21">
    <!-- 0.00 -->
    <g style="fill:#262626;" transform="translate(319.202406 45.342031)scale(0.1 -0.1)">
     <use xlink:href="#Helvetica-48"/>
     <use x="55.615234" xlink:href="#Helvetica-46"/>
     <use x="83.398438" xlink:href="#Helvetica-48"/>
     <use x="139.013672" xlink:href="#Helvetica-48"/>
    </g>
   </g>
   <g id="text_22">
    <!-- 0.00 -->
    <g style="fill:#262626;" transform="translate(361.052406 45.342031)scale(0.1 -0.1)">
     <use xlink:href="#Helvetica-48"/>
     <use x="55.615234" xlink:href="#Helvetica-46"/>
     <use x="83.398438" xlink:href="#Helvetica-48"/>
     <use x="139.013672" xlink:href="#Helvetica-48"/>
    </g>
   </g>
   <g id="text_23">
    <!-- 0.25 -->
    <g style="fill:#262626;" transform="translate(68.102406 81.582031)scale(0.1 -0.1)">
     <use xlink:href="#Helvetica-48"/>
     <use x="55.615234" xlink:href="#Helvetica-46"/>
     <use x="83.398438" xlink:href="#Helvetica-50"/>
     <use x="139.013672" xlink:href="#Helvetica-53"/>
    </g>
   </g>
   <g id="text_24">
    <!-- 0.50 -->
    <g style="fill:#ffffff;" transform="translate(109.952406 81.582031)scale(0.1 -0.1)">
     <use xlink:href="#Helvetica-48"/>
     <use x="55.615234" xlink:href="#Helvetica-46"/>
     <use x="83.398438" xlink:href="#Helvetica-53"/>
     <use x="139.013672" xlink:href="#Helvetica-48"/>
    </g>
   </g>
   <g id="text_25">
    <!-- 0.25 -->
    <g style="fill:#262626;" transform="translate(151.802406 81.582031)scale(0.1 -0.1)">
     <use xlink:href="#Helvetica-48"/>
     <use x="55.615234" xlink:href="#Helvetica-46"/>
     <use x="83.398438" xlink:href="#Helvetica-50"/>
     <use x="139.013672" xlink:href="#Helvetica-53"/>
    </g>
   </g>
   <g id="text_26">
    <!-- 0.25 -->
    <g style="fill:#262626;" transform="translate(193.652406 81.582031)scale(0.1 -0.1)">
     <use xlink:href="#Helvetica-48"/>
     <use x="55.615234" xlink:href="#Helvetica-46"/>
     <use x="83.398438" xlink:href="#Helvetica-50"/>
     <use x="139.013672" xlink:href="#Helvetica-53"/>
    </g>
   </g>
   <g id="text_27">
    <!-- 0.25 -->
    <g style="fill:#262626;" transform="translate(235.502406 81.582031)scale(0.1 -0.1)">
     <use xlink:href="#Helvetica-48"/>
     <use x="55.615234" xlink:href="#Helvetica-46"/>
     <use x="83.398438" xlink:href="#Helvetica-50"/>
     <use x="139.013672" xlink:href="#Helvetica-53"/>
    </g>
   </g>
   <g id="text_28">
    <!-- 0.00 -->
    <g style="fill:#262626;" transform="translate(277.352406 81.582031)scale(0.1 -0.1)">
     <use xlink:href="#Helvetica-48"/>
     <use x="55.615234" xlink:href="#Helvetica-46"/>
     <use x="83.398438" xlink:href="#Helvetica-48"/>
     <use x="139.013672" xlink:href="#Helvetica-48"/>
    </g>
   </g>
   <g id="text_29">
    <!-- 0.00 -->
    <g style="fill:#262626;" transform="translate(319.202406 81.582031)scale(0.1 -0.1)">
     <use xlink:href="#Helvetica-48"/>
     <use x="55.615234" xlink:href="#Helvetica-46"/>
     <use x="83.398438" xlink:href="#Helvetica-48"/>
     <use x="139.013672" xlink:href="#Helvetica-48"/>
    </g>
   </g>
   <g id="text_30">
    <!-- 0.00 -->
    <g style="fill:#262626;" transform="translate(361.052406 81.582031)scale(0.1 -0.1)">
     <use xlink:href="#Helvetica-48"/>
     <use x="55.615234" xlink:href="#Helvetica-46"/>
     <use x="83.398438" xlink:href="#Helvetica-48"/>
     <use x="139.013672" xlink:href="#Helvetica-48"/>
    </g>
   </g>
   <g id="text_31">
    <!-- 0.00 -->
    <g style="fill:#262626;" transform="translate(68.102406 117.822031)scale(0.1 -0.1)">
     <use xlink:href="#Helvetica-48"/>
     <use x="55.615234" xlink:href="#Helvetica-46"/>
     <use x="83.398438" xlink:href="#Helvetica-48"/>
     <use x="139.013672" xlink:href="#Helvetica-48"/>
    </g>
   </g>
   <g id="text_32">
    <!-- 0.00 -->
    <g style="fill:#262626;" transform="translate(109.952406 117.822031)scale(0.1 -0.1)">
     <use xlink:href="#Helvetica-48"/>
     <use x="55.615234" xlink:href="#Helvetica-46"/>
     <use x="83.398438" xlink:href="#Helvetica-48"/>
     <use x="139.013672" xlink:href="#Helvetica-48"/>
    </g>
   </g>
   <g id="text_33">
    <!-- 0.00 -->
    <g style="fill:#262626;" transform="translate(151.802406 117.822031)scale(0.1 -0.1)">
     <use xlink:href="#Helvetica-48"/>
     <use x="55.615234" xlink:href="#Helvetica-46"/>
     <use x="83.398438" xlink:href="#Helvetica-48"/>
     <use x="139.013672" xlink:href="#Helvetica-48"/>
    </g>
   </g>
   <g id="text_34">
    <!-- 0.25 -->
    <g style="fill:#262626;" transform="translate(193.652406 117.822031)scale(0.1 -0.1)">
     <use xlink:href="#Helvetica-48"/>
     <use x="55.615234" xlink:href="#Helvetica-46"/>
     <use x="83.398438" xlink:href="#Helvetica-50"/>
     <use x="139.013672" xlink:href="#Helvetica-53"/>
    </g>
   </g>
   <g id="text_35">
    <!-- 0.25 -->
    <g style="fill:#262626;" transform="translate(235.502406 117.822031)scale(0.1 -0.1)">
     <use xlink:href="#Helvetica-48"/>
     <use x="55.615234" xlink:href="#Helvetica-46"/>
     <use x="83.398438" xlink:href="#Helvetica-50"/>
     <use x="139.013672" xlink:href="#Helvetica-53"/>
    </g>
   </g>
   <g id="text_36">
    <!-- 0.00 -->
    <g style="fill:#262626;" transform="translate(277.352406 117.822031)scale(0.1 -0.1)">
     <use xlink:href="#Helvetica-48"/>
     <use x="55.615234" xlink:href="#Helvetica-46"/>
     <use x="83.398438" xlink:href="#Helvetica-48"/>
     <use x="139.013672" xlink:href="#Helvetica-48"/>
    </g>
   </g>
   <g id="text_37">
    <!-- 0.00 -->
    <g style="fill:#262626;" transform="translate(319.202406 117.822031)scale(0.1 -0.1)">
     <use xlink:href="#Helvetica-48"/>
     <use x="55.615234" xlink:href="#Helvetica-46"/>
     <use x="83.398438" xlink:href="#Helvetica-48"/>
     <use x="139.013672" xlink:href="#Helvetica-48"/>
    </g>
   </g>
   <g id="text_38">
    <!-- 0.00 -->
    <g style="fill:#262626;" transform="translate(361.052406 117.822031)scale(0.1 -0.1)">
     <use xlink:href="#Helvetica-48"/>
     <use x="55.615234" xlink:href="#Helvetica-46"/>
     <use x="83.398438" xlink:href="#Helvetica-48"/>
     <use x="139.013672" xlink:href="#Helvetica-48"/>
    </g>
   </g>
   <g id="text_39">
    <!-- 0.00 -->
    <g style="fill:#262626;" transform="translate(68.102406 154.062031)scale(0.1 -0.1)">
     <use xlink:href="#Helvetica-48"/>
     <use x="55.615234" xlink:href="#Helvetica-46"/>
     <use x="83.398438" xlink:href="#Helvetica-48"/>
     <use x="139.013672" xlink:href="#Helvetica-48"/>
    </g>
   </g>
   <g id="text_40">
    <!-- 0.00 -->
    <g style="fill:#262626;" transform="translate(109.952406 154.062031)scale(0.1 -0.1)">
     <use xlink:href="#Helvetica-48"/>
     <use x="55.615234" xlink:href="#Helvetica-46"/>
     <use x="83.398438" xlink:href="#Helvetica-48"/>
     <use x="139.013672" xlink:href="#Helvetica-48"/>
    </g>
   </g>
   <g id="text_41">
    <!-- 0.00 -->
    <g style="fill:#262626;" transform="translate(151.802406 154.062031)scale(0.1 -0.1)">
     <use xlink:href="#Helvetica-48"/>
     <use x="55.615234" xlink:href="#Helvetica-46"/>
     <use x="83.398438" xlink:href="#Helvetica-48"/>
     <use x="139.013672" xlink:href="#Helvetica-48"/>
    </g>
   </g>
   <g id="text_42">
    <!-- 0.00 -->
    <g style="fill:#262626;" transform="translate(193.652406 154.062031)scale(0.1 -0.1)">
     <use xlink:href="#Helvetica-48"/>
     <use x="55.615234" xlink:href="#Helvetica-46"/>
     <use x="83.398438" xlink:href="#Helvetica-48"/>
     <use x="139.013672" xlink:href="#Helvetica-48"/>
    </g>
   </g>
   <g id="text_43">
    <!-- 0.00 -->
    <g style="fill:#262626;" transform="translate(235.502406 154.062031)scale(0.1 -0.1)">
     <use xlink:href="#Helvetica-48"/>
     <use x="55.615234" xlink:href="#Helvetica-46"/>
     <use x="83.398438" xlink:href="#Helvetica-48"/>
     <use x="139.013672" xlink:href="#Helvetica-48"/>
    </g>
   </g>
   <g id="text_44">
    <!-- 0.25 -->
    <g style="fill:#262626;" transform="translate(277.352406 154.062031)scale(0.1 -0.1)">
     <use xlink:href="#Helvetica-48"/>
     <use x="55.615234" xlink:href="#Helvetica-46"/>
     <use x="83.398438" xlink:href="#Helvetica-50"/>
     <use x="139.013672" xlink:href="#Helvetica-53"/>
    </g>
   </g>
   <g id="text_45">
    <!-- 0.00 -->
    <g style="fill:#262626;" transform="translate(319.202406 154.062031)scale(0.1 -0.1)">
     <use xlink:href="#Helvetica-48"/>
     <use x="55.615234" xlink:href="#Helvetica-46"/>
     <use x="83.398438" xlink:href="#Helvetica-48"/>
     <use x="139.013672" xlink:href="#Helvetica-48"/>
    </g>
   </g>
   <g id="text_46">
    <!-- 0.00 -->
    <g style="fill:#262626;" transform="translate(361.052406 154.062031)scale(0.1 -0.1)">
     <use xlink:href="#Helvetica-48"/>
     <use x="55.615234" xlink:href="#Helvetica-46"/>
     <use x="83.398438" xlink:href="#Helvetica-48"/>
     <use x="139.013672" xlink:href="#Helvetica-48"/>
    </g>
   </g>
   <g id="text_47">
    <!-- 0.00 -->
    <g style="fill:#262626;" transform="translate(68.102406 190.302031)scale(0.1 -0.1)">
     <use xlink:href="#Helvetica-48"/>
     <use x="55.615234" xlink:href="#Helvetica-46"/>
     <use x="83.398438" xlink:href="#Helvetica-48"/>
     <use x="139.013672" xlink:href="#Helvetica-48"/>
    </g>
   </g>
   <g id="text_48">
    <!-- 0.25 -->
    <g style="fill:#262626;" transform="translate(109.952406 190.302031)scale(0.1 -0.1)">
     <use xlink:href="#Helvetica-48"/>
     <use x="55.615234" xlink:href="#Helvetica-46"/>
     <use x="83.398438" xlink:href="#Helvetica-50"/>
     <use x="139.013672" xlink:href="#Helvetica-53"/>
    </g>
   </g>
   <g id="text_49">
    <!-- 0.25 -->
    <g style="fill:#262626;" transform="translate(151.802406 190.302031)scale(0.1 -0.1)">
     <use xlink:href="#Helvetica-48"/>
     <use x="55.615234" xlink:href="#Helvetica-46"/>
     <use x="83.398438" xlink:href="#Helvetica-50"/>
     <use x="139.013672" xlink:href="#Helvetica-53"/>
    </g>
   </g>
   <g id="text_50">
    <!-- 0.25 -->
    <g style="fill:#262626;" transform="translate(193.652406 190.302031)scale(0.1 -0.1)">
     <use xlink:href="#Helvetica-48"/>
     <use x="55.615234" xlink:href="#Helvetica-46"/>
     <use x="83.398438" xlink:href="#Helvetica-50"/>
     <use x="139.013672" xlink:href="#Helvetica-53"/>
    </g>
   </g>
   <g id="text_51">
    <!-- 0.00 -->
    <g style="fill:#262626;" transform="translate(235.502406 190.302031)scale(0.1 -0.1)">
     <use xlink:href="#Helvetica-48"/>
     <use x="55.615234" xlink:href="#Helvetica-46"/>
     <use x="83.398438" xlink:href="#Helvetica-48"/>
     <use x="139.013672" xlink:href="#Helvetica-48"/>
    </g>
   </g>
   <g id="text_52">
    <!-- 0.00 -->
    <g style="fill:#262626;" transform="translate(277.352406 190.302031)scale(0.1 -0.1)">
     <use xlink:href="#Helvetica-48"/>
     <use x="55.615234" xlink:href="#Helvetica-46"/>
     <use x="83.398438" xlink:href="#Helvetica-48"/>
     <use x="139.013672" xlink:href="#Helvetica-48"/>
    </g>
   </g>
   <g id="text_53">
    <!-- 0.00 -->
    <g style="fill:#262626;" transform="translate(319.202406 190.302031)scale(0.1 -0.1)">
     <use xlink:href="#Helvetica-48"/>
     <use x="55.615234" xlink:href="#Helvetica-46"/>
     <use x="83.398438" xlink:href="#Helvetica-48"/>
     <use x="139.013672" xlink:href="#Helvetica-48"/>
    </g>
   </g>
   <g id="text_54">
    <!-- 0.00 -->
    <g style="fill:#262626;" transform="translate(361.052406 190.302031)scale(0.1 -0.1)">
     <use xlink:href="#Helvetica-48"/>
     <use x="55.615234" xlink:href="#Helvetica-46"/>
     <use x="83.398438" xlink:href="#Helvetica-48"/>
     <use x="139.013672" xlink:href="#Helvetica-48"/>
    </g>
   </g>
   <g id="text_55">
    <!-- 0.00 -->
    <g style="fill:#262626;" transform="translate(68.102406 226.542031)scale(0.1 -0.1)">
     <use xlink:href="#Helvetica-48"/>
     <use x="55.615234" xlink:href="#Helvetica-46"/>
     <use x="83.398438" xlink:href="#Helvetica-48"/>
     <use x="139.013672" xlink:href="#Helvetica-48"/>
    </g>
   </g>
   <g id="text_56">
    <!-- 0.25 -->
    <g style="fill:#262626;" transform="translate(109.952406 226.542031)scale(0.1 -0.1)">
     <use xlink:href="#Helvetica-48"/>
     <use x="55.615234" xlink:href="#Helvetica-46"/>
     <use x="83.398438" xlink:href="#Helvetica-50"/>
     <use x="139.013672" xlink:href="#Helvetica-53"/>
    </g>
   </g>
   <g id="text_57">
    <!-- 0.25 -->
    <g style="fill:#262626;" transform="translate(151.802406 226.542031)scale(0.1 -0.1)">
     <use xlink:href="#Helvetica-48"/>
     <use x="55.615234" xlink:href="#Helvetica-46"/>
     <use x="83.398438" xlink:href="#Helvetica-50"/>
     <use x="139.013672" xlink:href="#Helvetica-53"/>
    </g>
   </g>
   <g id="text_58">
    <!-- 0.25 -->
    <g style="fill:#262626;" transform="translate(193.652406 226.542031)scale(0.1 -0.1)">
     <use xlink:href="#Helvetica-48"/>
     <use x="55.615234" xlink:href="#Helvetica-46"/>
     <use x="83.398438" xlink:href="#Helvetica-50"/>
     <use x="139.013672" xlink:href="#Helvetica-53"/>
    </g>
   </g>
   <g id="text_59">
    <!-- 0.50 -->
    <g style="fill:#ffffff;" transform="translate(235.502406 226.542031)scale(0.1 -0.1)">
     <use xlink:href="#Helvetica-48"/>
     <use x="55.615234" xlink:href="#Helvetica-46"/>
     <use x="83.398438" xlink:href="#Helvetica-53"/>
     <use x="139.013672" xlink:href="#Helvetica-48"/>
    </g>
   </g>
   <g id="text_60">
    <!-- 0.75 -->
    <g style="fill:#ffffff;" transform="translate(277.352406 226.542031)scale(0.1 -0.1)">
     <use xlink:href="#Helvetica-48"/>
     <use x="55.615234" xlink:href="#Helvetica-46"/>
     <use x="83.398438" xlink:href="#Helvetica-55"/>
     <use x="139.013672" xlink:href="#Helvetica-53"/>
    </g>
   </g>
   <g id="text_61">
    <!-- 1.00 -->
    <g style="fill:#ffffff;" transform="translate(319.202406 226.542031)scale(0.1 -0.1)">
     <use xlink:href="#Helvetica-49"/>
     <use x="55.615234" xlink:href="#Helvetica-46"/>
     <use x="83.398438" xlink:href="#Helvetica-48"/>
     <use x="139.013672" xlink:href="#Helvetica-48"/>
    </g>
   </g>
   <g id="text_62">
    <!-- 1.00 -->
    <g style="fill:#ffffff;" transform="translate(361.052406 226.542031)scale(0.1 -0.1)">
     <use xlink:href="#Helvetica-49"/>
     <use x="55.615234" xlink:href="#Helvetica-46"/>
     <use x="83.398438" xlink:href="#Helvetica-48"/>
     <use x="139.013672" xlink:href="#Helvetica-48"/>
    </g>
   </g>
   <g id="text_63">
    <!--  step matrix  -->
    <g style="fill:#262626;" transform="translate(180.744125 18.6775)scale(0.16 -0.16)">
     <defs>
      <path id="Helvetica-32"/>
      <path d="M 11.671875 16.40625 
Q 12.0625 12.015625 13.875 9.671875 
Q 17.1875 5.421875 25.390625 5.421875 
Q 30.28125 5.421875 33.984375 7.546875 
Q 37.703125 9.671875 37.703125 14.109375 
Q 37.703125 17.484375 34.71875 19.234375 
Q 32.8125 20.3125 27.203125 21.734375 
L 20.21875 23.484375 
Q 13.53125 25.140625 10.359375 27.203125 
Q 4.6875 30.765625 4.6875 37.0625 
Q 4.6875 44.484375 10.03125 49.0625 
Q 15.375 53.65625 24.421875 53.65625 
Q 36.234375 53.65625 41.453125 46.734375 
Q 44.734375 42.328125 44.625 37.25 
L 36.328125 37.25 
Q 36.078125 40.234375 34.234375 42.671875 
Q 31.203125 46.140625 23.734375 46.140625 
Q 18.75 46.140625 16.1875 44.234375 
Q 13.625 42.328125 13.625 39.203125 
Q 13.625 35.796875 17 33.734375 
Q 18.953125 32.515625 22.75 31.59375 
L 28.5625 30.171875 
Q 38.03125 27.875 41.265625 25.734375 
Q 46.390625 22.359375 46.390625 15.140625 
Q 46.390625 8.15625 41.09375 3.078125 
Q 35.796875 -2 24.953125 -2 
Q 13.28125 -2 8.421875 3.296875 
Q 3.5625 8.59375 3.21875 16.40625 
z
M 24.65625 53.5625 
z
" id="Helvetica-115"/>
      <path d="M 1.46875 52.296875 
L 12.84375 52.296875 
L 24.859375 33.890625 
L 37.015625 52.296875 
L 47.703125 52.046875 
L 30.078125 26.8125 
L 48.484375 0 
L 37.25 0 
L 24.265625 19.625 
L 11.671875 0 
L 0.53125 0 
L 18.953125 26.8125 
z
" id="Helvetica-120"/>
     </defs>
     <use xlink:href="#Helvetica-32"/>
     <use x="27.783203" xlink:href="#Helvetica-115"/>
     <use x="77.783203" xlink:href="#Helvetica-116"/>
     <use x="105.566406" xlink:href="#Helvetica-101"/>
     <use x="161.181641" xlink:href="#Helvetica-112"/>
     <use x="216.796875" xlink:href="#Helvetica-32"/>
     <use x="244.580078" xlink:href="#Helvetica-109"/>
     <use x="327.880859" xlink:href="#Helvetica-97"/>
     <use x="383.496094" xlink:href="#Helvetica-116"/>
     <use x="411.279297" xlink:href="#Helvetica-114"/>
     <use x="444.580078" xlink:href="#Helvetica-105"/>
     <use x="466.796875" xlink:href="#Helvetica-120"/>
     <use x="516.796875" xlink:href="#Helvetica-32"/>
    </g>
   </g>
  </g>
 </g>
 <defs>
  <clipPath id="p182a36052b">
   <rect height="217.44" width="334.8" x="56.907875" y="24.6775"/>
  </clipPath>
 </defs>
</svg>
