<?xml version="1.0" encoding="utf-8" standalone="no"?>
<!DOCTYPE svg PUBLIC "-//W3C//DTD SVG 1.1//EN"
  "http://www.w3.org/Graphics/SVG/1.1/DTD/svg11.dtd">
<!-- Created with matplotlib (https://matplotlib.org/) -->
<svg height="469.932256pt" version="1.1" viewBox="0 0 583.169156 469.932256" width="583.169156pt" xmlns="http://www.w3.org/2000/svg" xmlns:xlink="http://www.w3.org/1999/xlink">
 <metadata>
  <rdf:RDF xmlns:cc="http://creativecommons.org/ns#" xmlns:dc="http://purl.org/dc/elements/1.1/" xmlns:rdf="http://www.w3.org/1999/02/22-rdf-syntax-ns#">
   <cc:Work>
    <dc:type rdf:resource="http://purl.org/dc/dcmitype/StillImage"/>
    <dc:date>2020-10-01T21:00:41.816285</dc:date>
    <dc:format>image/svg+xml</dc:format>
    <dc:creator>
     <cc:Agent>
      <dc:title>Matplotlib v3.3.1, https://matplotlib.org/</dc:title>
     </cc:Agent>
    </dc:creator>
   </cc:Work>
  </rdf:RDF>
 </metadata>
 <defs>
  <style type="text/css">*{stroke-linecap:butt;stroke-linejoin:round;}</style>
 </defs>
 <g id="figure_1">
  <g id="patch_1">
   <path d="M 0 469.932256 
L 583.169156 469.932256 
L 583.169156 -0 
L 0 -0 
z
" style="fill:#ffffff;"/>
  </g>
  <g id="axes_1">
   <g id="patch_2">
    <path d="M 72.862969 365.3826 
L 463.462969 365.3826 
L 463.462969 39.2226 
L 72.862969 39.2226 
z
" style="fill:#ffffff;"/>
   </g>
   <g id="patch_3">
    <path clip-path="url(#pd8adcf7cef)" d="M 77.745469 365.3826 
L 97.275469 365.3826 
L 97.275469 61.288001 
L 77.745469 61.288001 
z
" style="fill:#4775b4;"/>
   </g>
   <g id="patch_4">
    <path clip-path="url(#pd8adcf7cef)" d="M 126.570469 365.3826 
L 146.100469 365.3826 
L 146.100469 240.963407 
L 126.570469 240.963407 
z
" style="fill:#4775b4;"/>
   </g>
   <g id="patch_5">
    <path clip-path="url(#pd8adcf7cef)" d="M 175.395469 365.3826 
L 194.925469 365.3826 
L 194.925469 290.286068 
L 175.395469 290.286068 
z
" style="fill:#4775b4;"/>
   </g>
   <g id="patch_6">
    <path clip-path="url(#pd8adcf7cef)" d="M 224.220469 365.3826 
L 243.750469 365.3826 
L 243.750469 299.371821 
L 224.220469 299.371821 
z
" style="fill:#4775b4;"/>
   </g>
   <g id="patch_7">
    <path clip-path="url(#pd8adcf7cef)" d="M 273.045469 365.3826 
L 292.575469 365.3826 
L 292.575469 332.006364 
L 273.045469 332.006364 
z
" style="fill:#4775b4;"/>
   </g>
   <g id="patch_8">
    <path clip-path="url(#pd8adcf7cef)" d="M 321.870469 365.3826 
L 341.400469 365.3826 
L 341.400469 349.250752 
L 321.870469 349.250752 
z
" style="fill:#4775b4;"/>
   </g>
   <g id="patch_9">
    <path clip-path="url(#pd8adcf7cef)" d="M 370.695469 365.3826 
L 390.225469 365.3826 
L 390.225469 350.919564 
L 370.695469 350.919564 
z
" style="fill:#4775b4;"/>
   </g>
   <g id="patch_10">
    <path clip-path="url(#pd8adcf7cef)" d="M 419.520469 365.3826 
L 439.050469 365.3826 
L 439.050469 359.263623 
L 419.520469 359.263623 
z
" style="fill:#4775b4;"/>
   </g>
   <g id="patch_11">
    <path clip-path="url(#pd8adcf7cef)" d="M 97.275469 365.3826 
L 116.805469 365.3826 
L 116.805469 60.063495 
L 97.275469 60.063495 
z
" style="fill:#7f9a49;"/>
   </g>
   <g id="patch_12">
    <path clip-path="url(#pd8adcf7cef)" d="M 146.100469 365.3826 
L 165.630469 365.3826 
L 165.630469 351.141322 
L 146.100469 351.141322 
z
" style="fill:#7f9a49;"/>
   </g>
   <g id="patch_13">
    <path clip-path="url(#pd8adcf7cef)" d="M 194.925469 365.3826 
L 214.455469 365.3826 
L 214.455469 270.903878 
L 194.925469 270.903878 
z
" style="fill:#7f9a49;"/>
   </g>
   <g id="patch_14">
    <path clip-path="url(#pd8adcf7cef)" d="M 243.750469 365.3826 
L 263.280469 365.3826 
L 263.280469 297.302344 
L 243.750469 297.302344 
z
" style="fill:#7f9a49;"/>
   </g>
   <g id="patch_15">
    <path clip-path="url(#pd8adcf7cef)" d="M 292.575469 365.3826 
L 312.105469 365.3826 
L 312.105469 339.67883 
L 292.575469 339.67883 
z
" style="fill:#7f9a49;"/>
   </g>
   <g id="patch_16">
    <path clip-path="url(#pd8adcf7cef)" d="M 341.400469 365.3826 
L 360.930469 365.3826 
L 360.930469 234.779661 
L 341.400469 234.779661 
z
" style="fill:#7f9a49;"/>
   </g>
   <g id="patch_17">
    <path clip-path="url(#pd8adcf7cef)" d="M 390.225469 365.3826 
L 409.755469 365.3826 
L 409.755469 357.39359 
L 390.225469 357.39359 
z
" style="fill:#7f9a49;"/>
   </g>
   <g id="patch_18">
    <path clip-path="url(#pd8adcf7cef)" d="M 439.050469 365.3826 
L 458.580469 365.3826 
L 458.580469 363.645859 
L 439.050469 363.645859 
z
" style="fill:#7f9a49;"/>
   </g>
   <g id="matplotlib.axis_1">
    <g id="xtick_1">
     <g id="line2d_1"/>
     <g id="text_1">
      <!-- catalog -->
      <g style="fill:#262626;" transform="translate(100.400859 411.609725)rotate(-90)scale(0.126 -0.126)">
       <defs>
        <path d="M 26.609375 53.8125 
Q 35.453125 53.8125 40.984375 49.515625 
Q 46.53125 45.21875 47.65625 34.71875 
L 39.109375 34.71875 
Q 38.328125 39.546875 35.546875 42.75 
Q 32.765625 45.953125 26.609375 45.953125 
Q 18.21875 45.953125 14.59375 37.75 
Q 12.25 32.421875 12.25 24.609375 
Q 12.25 16.75 15.5625 11.375 
Q 18.890625 6 26.03125 6 
Q 31.5 6 34.6875 9.34375 
Q 37.890625 12.703125 39.109375 18.5 
L 47.65625 18.5 
Q 46.1875 8.109375 40.328125 3.296875 
Q 34.46875 -1.515625 25.34375 -1.515625 
Q 15.09375 -1.515625 8.984375 5.984375 
Q 2.875 13.484375 2.875 24.703125 
Q 2.875 38.484375 9.5625 46.140625 
Q 16.265625 53.8125 26.609375 53.8125 
z
M 25.25 53.5625 
z
" id="Helvetica-99"/>
        <path d="M 13.1875 13.921875 
Q 13.1875 10.109375 15.96875 7.90625 
Q 18.75 5.71875 22.5625 5.71875 
Q 27.203125 5.71875 31.546875 7.859375 
Q 38.875 11.421875 38.875 19.53125 
L 38.875 26.609375 
Q 37.25 25.59375 34.703125 24.90625 
Q 32.171875 24.21875 29.734375 23.921875 
L 24.421875 23.25 
Q 19.625 22.609375 17.234375 21.234375 
Q 13.1875 18.953125 13.1875 13.921875 
z
M 34.46875 31.6875 
Q 37.5 32.078125 38.53125 34.234375 
Q 39.109375 35.40625 39.109375 37.59375 
Q 39.109375 42.09375 35.90625 44.109375 
Q 32.71875 46.140625 26.765625 46.140625 
Q 19.875 46.140625 17 42.4375 
Q 15.375 40.375 14.890625 36.328125 
L 6.6875 36.328125 
Q 6.9375 46 12.96875 49.78125 
Q 19 53.5625 26.953125 53.5625 
Q 36.1875 53.5625 41.9375 50.046875 
Q 47.65625 46.53125 47.65625 39.109375 
L 47.65625 8.984375 
Q 47.65625 7.625 48.21875 6.78125 
Q 48.78125 5.953125 50.59375 5.953125 
Q 51.171875 5.953125 51.90625 6.03125 
Q 52.640625 6.109375 53.46875 6.25 
L 53.46875 -0.25 
Q 51.421875 -0.828125 50.34375 -0.96875 
Q 49.265625 -1.125 47.40625 -1.125 
Q 42.875 -1.125 40.828125 2.09375 
Q 39.75 3.8125 39.3125 6.9375 
Q 36.625 3.421875 31.59375 0.828125 
Q 26.5625 -1.765625 20.515625 -1.765625 
Q 13.234375 -1.765625 8.609375 2.65625 
Q 4 7.078125 4 13.71875 
Q 4 21 8.546875 25 
Q 13.09375 29 20.453125 29.9375 
z
M 27.203125 53.5625 
z
" id="Helvetica-97"/>
        <path d="M 8.203125 66.890625 
L 17.09375 66.890625 
L 17.09375 52.296875 
L 25.4375 52.296875 
L 25.4375 45.125 
L 17.09375 45.125 
L 17.09375 10.984375 
Q 17.09375 8.25 18.953125 7.328125 
Q 19.96875 6.78125 22.359375 6.78125 
Q 23 6.78125 23.734375 6.8125 
Q 24.46875 6.84375 25.4375 6.9375 
L 25.4375 0 
Q 23.921875 -0.4375 22.28125 -0.625 
Q 20.65625 -0.828125 18.75 -0.828125 
Q 12.59375 -0.828125 10.390625 2.3125 
Q 8.203125 5.46875 8.203125 10.5 
L 8.203125 45.125 
L 1.125 45.125 
L 1.125 52.296875 
L 8.203125 52.296875 
z
" id="Helvetica-116"/>
        <path d="M 6.6875 71.734375 
L 15.484375 71.734375 
L 15.484375 0 
L 6.6875 0 
z
" id="Helvetica-108"/>
        <path d="M 27.203125 5.671875 
Q 35.9375 5.671875 39.1875 12.28125 
Q 42.4375 18.890625 42.4375 27 
Q 42.4375 34.328125 40.09375 38.921875 
Q 36.375 46.140625 27.296875 46.140625 
Q 19.234375 46.140625 15.578125 39.984375 
Q 11.921875 33.84375 11.921875 25.140625 
Q 11.921875 16.796875 15.578125 11.234375 
Q 19.234375 5.671875 27.203125 5.671875 
z
M 27.546875 53.8125 
Q 37.640625 53.8125 44.625 47.0625 
Q 51.609375 40.328125 51.609375 27.25 
Q 51.609375 14.59375 45.453125 6.34375 
Q 39.3125 -1.90625 26.375 -1.90625 
Q 15.578125 -1.90625 9.21875 5.390625 
Q 2.875 12.703125 2.875 25 
Q 2.875 38.1875 9.5625 46 
Q 16.265625 53.8125 27.546875 53.8125 
z
M 27.25 53.5625 
z
" id="Helvetica-111"/>
        <path d="M 24.90625 53.21875 
Q 31.0625 53.21875 35.640625 50.203125 
Q 38.140625 48.484375 40.71875 45.21875 
L 40.71875 51.8125 
L 48.828125 51.8125 
L 48.828125 4.25 
Q 48.828125 -5.71875 45.90625 -11.46875 
Q 40.4375 -22.125 25.25 -22.125 
Q 16.796875 -22.125 11.03125 -18.328125 
Q 5.28125 -14.546875 4.59375 -6.5 
L 13.53125 -6.5 
Q 14.15625 -10.015625 16.0625 -11.921875 
Q 19.046875 -14.84375 25.4375 -14.84375 
Q 35.546875 -14.84375 38.671875 -7.71875 
Q 40.53125 -3.515625 40.375 7.28125 
Q 37.75 3.265625 34.03125 1.3125 
Q 30.328125 -0.640625 24.21875 -0.640625 
Q 15.71875 -0.640625 9.34375 5.390625 
Q 2.984375 11.421875 2.984375 25.34375 
Q 2.984375 38.484375 9.40625 45.84375 
Q 15.828125 53.21875 24.90625 53.21875 
z
M 40.71875 26.375 
Q 40.71875 36.078125 36.71875 40.765625 
Q 32.71875 45.453125 26.515625 45.453125 
Q 17.234375 45.453125 13.8125 36.765625 
Q 12.015625 32.125 12.015625 24.609375 
Q 12.015625 15.765625 15.59375 11.15625 
Q 19.1875 6.546875 25.25 6.546875 
Q 34.71875 6.546875 38.578125 15.09375 
Q 40.71875 19.921875 40.71875 26.375 
z
M 25.921875 53.5625 
z
" id="Helvetica-103"/>
       </defs>
       <use xlink:href="#Helvetica-99"/>
       <use x="50" xlink:href="#Helvetica-97"/>
       <use x="105.615234" xlink:href="#Helvetica-116"/>
       <use x="133.398438" xlink:href="#Helvetica-97"/>
       <use x="189.013672" xlink:href="#Helvetica-108"/>
       <use x="211.230469" xlink:href="#Helvetica-111"/>
       <use x="266.845703" xlink:href="#Helvetica-103"/>
      </g>
     </g>
    </g>
    <g id="xtick_2">
     <g id="line2d_2"/>
     <g id="text_2">
      <!-- product2 -->
      <g style="fill:#262626;" transform="translate(149.321344 420.01235)rotate(-90)scale(0.126 -0.126)">
       <defs>
        <path d="M 28.515625 5.90625 
Q 34.671875 5.90625 38.75 11.0625 
Q 42.828125 16.21875 42.828125 26.46875 
Q 42.828125 32.71875 41.015625 37.203125 
Q 37.59375 45.84375 28.515625 45.84375 
Q 19.390625 45.84375 16.015625 36.71875 
Q 14.203125 31.84375 14.203125 24.3125 
Q 14.203125 18.265625 16.015625 14.015625 
Q 19.4375 5.90625 28.515625 5.90625 
z
M 5.765625 52.046875 
L 14.3125 52.046875 
L 14.3125 45.125 
Q 16.9375 48.6875 20.0625 50.640625 
Q 24.515625 53.5625 30.515625 53.5625 
Q 39.40625 53.5625 45.609375 46.75 
Q 51.8125 39.9375 51.8125 27.296875 
Q 51.8125 10.203125 42.875 2.875 
Q 37.203125 -1.765625 29.6875 -1.765625 
Q 23.78125 -1.765625 19.78125 0.828125 
Q 17.4375 2.296875 14.546875 5.859375 
L 14.546875 -20.84375 
L 5.765625 -20.84375 
z
" id="Helvetica-112"/>
        <path d="M 6.6875 52.296875 
L 15.046875 52.296875 
L 15.046875 43.265625 
Q 16.0625 45.90625 20.0625 49.6875 
Q 24.078125 53.46875 29.296875 53.46875 
Q 29.546875 53.46875 30.125 53.421875 
Q 30.71875 53.375 32.125 53.21875 
L 32.125 43.953125 
Q 31.34375 44.09375 30.6875 44.140625 
Q 30.03125 44.1875 29.25 44.1875 
Q 22.609375 44.1875 19.046875 39.90625 
Q 15.484375 35.640625 15.484375 30.078125 
L 15.484375 0 
L 6.6875 0 
z
" id="Helvetica-114"/>
        <path d="M 12.015625 25.53125 
Q 12.015625 17.140625 15.578125 11.46875 
Q 19.140625 5.8125 27 5.8125 
Q 33.109375 5.8125 37.03125 11.0625 
Q 40.96875 16.3125 40.96875 26.125 
Q 40.96875 36.03125 36.90625 40.796875 
Q 32.859375 45.5625 26.90625 45.5625 
Q 20.265625 45.5625 16.140625 40.484375 
Q 12.015625 35.40625 12.015625 25.53125 
z
M 25.25 53.21875 
Q 31.25 53.21875 35.296875 50.6875 
Q 37.640625 49.21875 40.625 45.5625 
L 40.625 71.96875 
L 49.078125 71.96875 
L 49.078125 0 
L 41.15625 0 
L 41.15625 7.28125 
Q 38.09375 2.4375 33.890625 0.28125 
Q 29.6875 -1.859375 24.265625 -1.859375 
Q 15.53125 -1.859375 9.125 5.484375 
Q 2.734375 12.84375 2.734375 25.046875 
Q 2.734375 36.46875 8.5625 44.84375 
Q 14.40625 53.21875 25.25 53.21875 
z
" id="Helvetica-100"/>
        <path d="M 15.234375 52.296875 
L 15.234375 17.578125 
Q 15.234375 13.578125 16.5 11.03125 
Q 18.84375 6.34375 25.25 6.34375 
Q 34.421875 6.34375 37.75 14.546875 
Q 39.546875 18.953125 39.546875 26.609375 
L 39.546875 52.296875 
L 48.34375 52.296875 
L 48.34375 0 
L 40.046875 0 
L 40.140625 7.71875 
Q 38.421875 4.734375 35.890625 2.6875 
Q 30.859375 -1.421875 23.6875 -1.421875 
Q 12.5 -1.421875 8.453125 6.0625 
Q 6.25 10.0625 6.25 16.75 
L 6.25 52.296875 
z
M 27.296875 53.5625 
z
" id="Helvetica-117"/>
        <path d="M 3.125 0 
Q 3.609375 9.03125 6.859375 15.71875 
Q 10.109375 22.40625 19.53125 27.875 
L 28.90625 33.296875 
Q 35.203125 36.96875 37.75 39.546875 
Q 41.75 43.609375 41.75 48.828125 
Q 41.75 54.9375 38.078125 58.515625 
Q 34.421875 62.109375 28.328125 62.109375 
Q 19.28125 62.109375 15.828125 55.28125 
Q 13.96875 51.609375 13.765625 45.125 
L 4.828125 45.125 
Q 4.984375 54.25 8.203125 60.015625 
Q 13.921875 70.171875 28.375 70.171875 
Q 40.375 70.171875 45.921875 63.671875 
Q 51.46875 57.171875 51.46875 49.21875 
Q 51.46875 40.828125 45.5625 34.859375 
Q 42.140625 31.390625 33.296875 26.46875 
L 26.609375 22.75 
Q 21.828125 20.125 19.09375 17.71875 
Q 14.203125 13.484375 12.9375 8.296875 
L 51.125 8.296875 
L 51.125 0 
L 3.125 0 
z
" id="Helvetica-50"/>
       </defs>
       <use xlink:href="#Helvetica-112"/>
       <use x="55.615234" xlink:href="#Helvetica-114"/>
       <use x="88.916016" xlink:href="#Helvetica-111"/>
       <use x="144.53125" xlink:href="#Helvetica-100"/>
       <use x="200.146484" xlink:href="#Helvetica-117"/>
       <use x="255.761719" xlink:href="#Helvetica-99"/>
       <use x="305.761719" xlink:href="#Helvetica-116"/>
       <use x="333.544922" xlink:href="#Helvetica-50"/>
      </g>
     </g>
    </g>
    <g id="xtick_3">
     <g id="line2d_3"/>
     <g id="text_3">
      <!-- lost -->
      <g style="fill:#262626;" transform="translate(198.131578 390.589381)rotate(-90)scale(0.126 -0.126)">
       <defs>
        <path d="M 11.671875 16.40625 
Q 12.0625 12.015625 13.875 9.671875 
Q 17.1875 5.421875 25.390625 5.421875 
Q 30.28125 5.421875 33.984375 7.546875 
Q 37.703125 9.671875 37.703125 14.109375 
Q 37.703125 17.484375 34.71875 19.234375 
Q 32.8125 20.3125 27.203125 21.734375 
L 20.21875 23.484375 
Q 13.53125 25.140625 10.359375 27.203125 
Q 4.6875 30.765625 4.6875 37.0625 
Q 4.6875 44.484375 10.03125 49.0625 
Q 15.375 53.65625 24.421875 53.65625 
Q 36.234375 53.65625 41.453125 46.734375 
Q 44.734375 42.328125 44.625 37.25 
L 36.328125 37.25 
Q 36.078125 40.234375 34.234375 42.671875 
Q 31.203125 46.140625 23.734375 46.140625 
Q 18.75 46.140625 16.1875 44.234375 
Q 13.625 42.328125 13.625 39.203125 
Q 13.625 35.796875 17 33.734375 
Q 18.953125 32.515625 22.75 31.59375 
L 28.5625 30.171875 
Q 38.03125 27.875 41.265625 25.734375 
Q 46.390625 22.359375 46.390625 15.140625 
Q 46.390625 8.15625 41.09375 3.078125 
Q 35.796875 -2 24.953125 -2 
Q 13.28125 -2 8.421875 3.296875 
Q 3.5625 8.59375 3.21875 16.40625 
z
M 24.65625 53.5625 
z
" id="Helvetica-115"/>
       </defs>
       <use xlink:href="#Helvetica-108"/>
       <use x="22.216797" xlink:href="#Helvetica-111"/>
       <use x="77.832031" xlink:href="#Helvetica-115"/>
       <use x="127.832031" xlink:href="#Helvetica-116"/>
      </g>
     </g>
    </g>
    <g id="xtick_4">
     <g id="line2d_4"/>
     <g id="text_4">
      <!-- main -->
      <g style="fill:#262626;" transform="translate(246.956578 398.291131)rotate(-90)scale(0.126 -0.126)">
       <defs>
        <path d="M 6.453125 52.296875 
L 15.140625 52.296875 
L 15.140625 44.875 
Q 18.265625 48.734375 20.796875 50.484375 
Q 25.140625 53.46875 30.671875 53.46875 
Q 36.921875 53.46875 40.71875 50.390625 
Q 42.875 48.640625 44.625 45.21875 
Q 47.5625 49.421875 51.515625 51.4375 
Q 55.46875 53.46875 60.40625 53.46875 
Q 70.953125 53.46875 74.75 45.84375 
Q 76.8125 41.75 76.8125 34.8125 
L 76.8125 0 
L 67.671875 0 
L 67.671875 36.328125 
Q 67.671875 41.546875 65.0625 43.5 
Q 62.453125 45.453125 58.6875 45.453125 
Q 53.515625 45.453125 49.78125 41.984375 
Q 46.046875 38.53125 46.046875 30.421875 
L 46.046875 0 
L 37.109375 0 
L 37.109375 34.125 
Q 37.109375 39.453125 35.84375 41.890625 
Q 33.84375 45.5625 28.375 45.5625 
Q 23.390625 45.5625 19.3125 41.703125 
Q 15.234375 37.84375 15.234375 27.734375 
L 15.234375 0 
L 6.453125 0 
z
" id="Helvetica-109"/>
        <path d="M 6.453125 52.046875 
L 15.375 52.046875 
L 15.375 0 
L 6.453125 0 
z
M 6.453125 71.734375 
L 15.375 71.734375 
L 15.375 61.765625 
L 6.453125 61.765625 
z
" id="Helvetica-105"/>
        <path d="M 6.453125 52.296875 
L 14.796875 52.296875 
L 14.796875 44.875 
Q 18.5 49.46875 22.65625 51.46875 
Q 26.8125 53.46875 31.890625 53.46875 
Q 43.015625 53.46875 46.921875 45.703125 
Q 49.078125 41.453125 49.078125 33.546875 
L 49.078125 0 
L 40.140625 0 
L 40.140625 32.953125 
Q 40.140625 37.75 38.71875 40.671875 
Q 36.375 45.5625 30.21875 45.5625 
Q 27.09375 45.5625 25.09375 44.921875 
Q 21.484375 43.84375 18.75 40.625 
Q 16.546875 38.03125 15.890625 35.265625 
Q 15.234375 32.515625 15.234375 27.390625 
L 15.234375 0 
L 6.453125 0 
z
M 27.09375 53.5625 
z
" id="Helvetica-110"/>
       </defs>
       <use xlink:href="#Helvetica-109"/>
       <use x="83.300781" xlink:href="#Helvetica-97"/>
       <use x="138.916016" xlink:href="#Helvetica-105"/>
       <use x="161.132812" xlink:href="#Helvetica-110"/>
      </g>
     </g>
    </g>
    <g id="xtick_5">
     <g id="line2d_5"/>
     <g id="text_5">
      <!-- cart -->
      <g style="fill:#262626;" transform="translate(295.781578 391.985225)rotate(-90)scale(0.126 -0.126)">
       <use xlink:href="#Helvetica-99"/>
       <use x="50" xlink:href="#Helvetica-97"/>
       <use x="105.615234" xlink:href="#Helvetica-114"/>
       <use x="138.916016" xlink:href="#Helvetica-116"/>
      </g>
     </g>
    </g>
    <g id="xtick_6">
     <g id="line2d_6"/>
     <g id="text_6">
      <!-- product1 -->
      <g style="fill:#262626;" transform="translate(344.621344 420.01235)rotate(-90)scale(0.126 -0.126)">
       <defs>
        <path d="M 9.578125 49.515625 
L 9.578125 56.25 
Q 19.09375 57.171875 22.84375 59.34375 
Q 26.609375 61.53125 28.46875 69.625 
L 35.40625 69.625 
L 35.40625 0 
L 26.03125 0 
L 26.03125 49.515625 
z
" id="Helvetica-49"/>
       </defs>
       <use xlink:href="#Helvetica-112"/>
       <use x="55.615234" xlink:href="#Helvetica-114"/>
       <use x="88.916016" xlink:href="#Helvetica-111"/>
       <use x="144.53125" xlink:href="#Helvetica-100"/>
       <use x="200.146484" xlink:href="#Helvetica-117"/>
       <use x="255.761719" xlink:href="#Helvetica-99"/>
       <use x="305.761719" xlink:href="#Helvetica-116"/>
       <use x="333.544922" xlink:href="#Helvetica-49"/>
      </g>
     </g>
    </g>
    <g id="xtick_7">
     <g id="line2d_7"/>
     <g id="text_7">
      <!-- delivery_choice -->
      <g style="fill:#262626;" transform="translate(393.408938 457.824162)rotate(-90)scale(0.126 -0.126)">
       <defs>
        <path d="M 28.21875 53.46875 
Q 33.796875 53.46875 39.015625 50.859375 
Q 44.234375 48.25 46.96875 44.09375 
Q 49.609375 40.140625 50.484375 34.859375 
Q 51.265625 31.25 51.265625 23.34375 
L 12.9375 23.34375 
Q 13.1875 15.375 16.703125 10.5625 
Q 20.21875 5.765625 27.59375 5.765625 
Q 34.46875 5.765625 38.578125 10.296875 
Q 40.921875 12.9375 41.890625 16.40625 
L 50.53125 16.40625 
Q 50.203125 13.53125 48.265625 9.984375 
Q 46.34375 6.453125 43.953125 4.203125 
Q 39.9375 0.296875 34.03125 -1.078125 
Q 30.859375 -1.859375 26.859375 -1.859375 
Q 17.09375 -1.859375 10.296875 5.25 
Q 3.515625 12.359375 3.515625 25.140625 
Q 3.515625 37.75 10.34375 45.609375 
Q 17.1875 53.46875 28.21875 53.46875 
z
M 42.234375 30.328125 
Q 41.703125 36.03125 39.75 39.453125 
Q 36.140625 45.796875 27.6875 45.796875 
Q 21.625 45.796875 17.515625 41.421875 
Q 13.421875 37.0625 13.1875 30.328125 
z
M 27.390625 53.5625 
z
" id="Helvetica-101"/>
        <path d="M 10.75 52.296875 
L 24.703125 9.71875 
L 39.3125 52.296875 
L 48.921875 52.296875 
L 29.203125 0 
L 19.828125 0 
L 0.53125 52.296875 
z
" id="Helvetica-118"/>
        <path d="M 39.109375 52.296875 
L 48.828125 52.296875 
Q 46.96875 47.265625 40.578125 29.34375 
Q 35.796875 15.875 32.5625 7.375 
Q 24.953125 -12.640625 21.828125 -17.03125 
Q 18.703125 -21.4375 11.078125 -21.4375 
Q 9.234375 -21.4375 8.234375 -21.28125 
Q 7.234375 -21.140625 5.765625 -20.75 
L 5.765625 -12.75 
Q 8.0625 -13.375 9.078125 -13.515625 
Q 10.109375 -13.671875 10.890625 -13.671875 
Q 13.328125 -13.671875 14.46875 -12.859375 
Q 15.625 -12.0625 16.40625 -10.890625 
Q 16.65625 -10.5 18.15625 -6.875 
Q 19.671875 -3.265625 20.359375 -1.515625 
L 1.03125 52.296875 
L 10.984375 52.296875 
L 25 9.71875 
z
M 24.953125 53.5625 
z
" id="Helvetica-121"/>
        <path d="M 0 -12.5 
L 0 -7.5625 
L 55.609375 -7.5625 
L 55.609375 -12.5 
z
" id="Helvetica-95"/>
        <path d="M 6.453125 71.96875 
L 15.234375 71.96875 
L 15.234375 45.21875 
Q 18.359375 49.171875 20.84375 50.78125 
Q 25.09375 53.5625 31.453125 53.5625 
Q 42.828125 53.5625 46.875 45.609375 
Q 49.078125 41.265625 49.078125 33.546875 
L 49.078125 0 
L 40.046875 0 
L 40.046875 32.953125 
Q 40.046875 38.71875 38.578125 41.40625 
Q 36.1875 45.703125 29.59375 45.703125 
Q 24.125 45.703125 19.671875 41.9375 
Q 15.234375 38.1875 15.234375 27.734375 
L 15.234375 0 
L 6.453125 0 
z
" id="Helvetica-104"/>
       </defs>
       <use xlink:href="#Helvetica-100"/>
       <use x="55.615234" xlink:href="#Helvetica-101"/>
       <use x="111.230469" xlink:href="#Helvetica-108"/>
       <use x="133.447266" xlink:href="#Helvetica-105"/>
       <use x="155.664062" xlink:href="#Helvetica-118"/>
       <use x="205.664062" xlink:href="#Helvetica-101"/>
       <use x="261.279297" xlink:href="#Helvetica-114"/>
       <use x="294.580078" xlink:href="#Helvetica-121"/>
       <use x="344.580078" xlink:href="#Helvetica-95"/>
       <use x="400.195312" xlink:href="#Helvetica-99"/>
       <use x="450.195312" xlink:href="#Helvetica-104"/>
       <use x="505.810547" xlink:href="#Helvetica-111"/>
       <use x="561.425781" xlink:href="#Helvetica-105"/>
       <use x="583.642578" xlink:href="#Helvetica-99"/>
       <use x="633.642578" xlink:href="#Helvetica-101"/>
      </g>
     </g>
    </g>
    <g id="xtick_8">
     <g id="line2d_8"/>
     <g id="text_8">
      <!-- payment_choice -->
      <g style="fill:#262626;" transform="translate(442.233938 462.732256)rotate(-90)scale(0.126 -0.126)">
       <use xlink:href="#Helvetica-112"/>
       <use x="55.615234" xlink:href="#Helvetica-97"/>
       <use x="111.230469" xlink:href="#Helvetica-121"/>
       <use x="161.230469" xlink:href="#Helvetica-109"/>
       <use x="244.53125" xlink:href="#Helvetica-101"/>
       <use x="300.146484" xlink:href="#Helvetica-110"/>
       <use x="355.761719" xlink:href="#Helvetica-116"/>
       <use x="383.544922" xlink:href="#Helvetica-95"/>
       <use x="439.160156" xlink:href="#Helvetica-99"/>
       <use x="489.160156" xlink:href="#Helvetica-104"/>
       <use x="544.775391" xlink:href="#Helvetica-111"/>
       <use x="600.390625" xlink:href="#Helvetica-105"/>
       <use x="622.607422" xlink:href="#Helvetica-99"/>
       <use x="672.607422" xlink:href="#Helvetica-101"/>
      </g>
     </g>
    </g>
   </g>
   <g id="matplotlib.axis_2">
    <g id="ytick_1">
     <g id="line2d_9">
      <path clip-path="url(#pd8adcf7cef)" d="M 72.862969 365.3826 
L 463.462969 365.3826 
" style="fill:none;stroke:#cccccc;stroke-linecap:square;stroke-width:1.12;"/>
     </g>
     <g id="line2d_10"/>
     <g id="text_9">
      <!-- 0.00% -->
      <g style="fill:#262626;" transform="translate(31.538031 369.901866)scale(0.126 -0.126)">
       <defs>
        <path d="M 27.046875 69.921875 
Q 40.625 69.921875 46.6875 58.734375 
Q 51.375 50.09375 51.375 35.0625 
Q 51.375 20.796875 47.125 11.46875 
Q 40.96875 -1.90625 27 -1.90625 
Q 14.40625 -1.90625 8.25 9.03125 
Q 3.125 18.171875 3.125 33.546875 
Q 3.125 45.453125 6.203125 54 
Q 11.96875 69.921875 27.046875 69.921875 
z
M 26.953125 6.109375 
Q 33.796875 6.109375 37.84375 12.15625 
Q 41.890625 18.21875 41.890625 34.71875 
Q 41.890625 46.625 38.953125 54.3125 
Q 36.03125 62.015625 27.59375 62.015625 
Q 19.828125 62.015625 16.234375 54.703125 
Q 12.640625 47.40625 12.640625 33.203125 
Q 12.640625 22.515625 14.9375 16.015625 
Q 18.453125 6.109375 26.953125 6.109375 
z
" id="Helvetica-48"/>
        <path d="M 8.546875 10.640625 
L 18.75 10.640625 
L 18.75 0 
L 8.546875 0 
z
" id="Helvetica-46"/>
        <path d="M 68.171875 33.984375 
Q 75.203125 33.984375 80.171875 29 
Q 85.15625 24.03125 85.15625 17 
Q 85.15625 9.96875 80.171875 4.984375 
Q 75.203125 0 68.171875 0 
Q 61.078125 0 56.09375 4.984375 
Q 51.125 9.96875 51.125 17 
Q 51.125 24.03125 56.09375 29 
Q 61.078125 33.984375 68.171875 33.984375 
z
M 61.078125 69.625 
L 66.5 69.625 
L 27.390625 -1.859375 
L 21.96875 -1.859375 
z
M 20.21875 40.71875 
Q 24.421875 40.71875 27.375 43.671875 
Q 30.328125 46.625 30.328125 50.78125 
Q 30.328125 54.9375 27.375 57.890625 
Q 24.421875 60.84375 20.21875 60.84375 
Q 16.0625 60.84375 13.109375 57.90625 
Q 10.15625 54.984375 10.15625 50.78125 
Q 10.15625 46.625 13.109375 43.671875 
Q 16.0625 40.71875 20.21875 40.71875 
z
M 20.21875 67.828125 
Q 27.296875 67.828125 32.265625 62.8125 
Q 37.25 57.8125 37.25 50.78125 
Q 37.25 43.75 32.265625 38.765625 
Q 27.296875 33.796875 20.21875 33.796875 
Q 13.1875 33.796875 8.203125 38.765625 
Q 3.21875 43.75 3.21875 50.78125 
Q 3.21875 57.8125 8.203125 62.8125 
Q 13.1875 67.828125 20.21875 67.828125 
z
M 68.171875 6.9375 
Q 72.3125 6.9375 75.265625 9.890625 
Q 78.21875 12.84375 78.21875 17 
Q 78.21875 21.140625 75.265625 24.09375 
Q 72.3125 27.046875 68.171875 27.046875 
Q 63.96875 27.046875 61.015625 24.09375 
Q 58.0625 21.140625 58.0625 17 
Q 58.0625 12.84375 61.015625 9.890625 
Q 63.96875 6.9375 68.171875 6.9375 
z
" id="Helvetica-37"/>
       </defs>
       <use xlink:href="#Helvetica-48"/>
       <use x="55.615234" xlink:href="#Helvetica-46"/>
       <use x="83.398438" xlink:href="#Helvetica-48"/>
       <use x="139.013672" xlink:href="#Helvetica-48"/>
       <use x="194.628906" xlink:href="#Helvetica-37"/>
      </g>
     </g>
    </g>
    <g id="ytick_2">
     <g id="line2d_11">
      <path clip-path="url(#pd8adcf7cef)" d="M 72.862969 300.1506 
L 463.462969 300.1506 
" style="fill:none;stroke:#cccccc;stroke-linecap:square;stroke-width:1.12;"/>
     </g>
     <g id="line2d_12"/>
     <g id="text_10">
      <!-- 10.00% -->
      <g style="fill:#262626;" transform="translate(24.53125 304.669866)scale(0.126 -0.126)">
       <use xlink:href="#Helvetica-49"/>
       <use x="55.615234" xlink:href="#Helvetica-48"/>
       <use x="111.230469" xlink:href="#Helvetica-46"/>
       <use x="139.013672" xlink:href="#Helvetica-48"/>
       <use x="194.628906" xlink:href="#Helvetica-48"/>
       <use x="250.244141" xlink:href="#Helvetica-37"/>
      </g>
     </g>
    </g>
    <g id="ytick_3">
     <g id="line2d_13">
      <path clip-path="url(#pd8adcf7cef)" d="M 72.862969 234.9186 
L 463.462969 234.9186 
" style="fill:none;stroke:#cccccc;stroke-linecap:square;stroke-width:1.12;"/>
     </g>
     <g id="line2d_14"/>
     <g id="text_11">
      <!-- 20.00% -->
      <g style="fill:#262626;" transform="translate(24.53125 239.437866)scale(0.126 -0.126)">
       <use xlink:href="#Helvetica-50"/>
       <use x="55.615234" xlink:href="#Helvetica-48"/>
       <use x="111.230469" xlink:href="#Helvetica-46"/>
       <use x="139.013672" xlink:href="#Helvetica-48"/>
       <use x="194.628906" xlink:href="#Helvetica-48"/>
       <use x="250.244141" xlink:href="#Helvetica-37"/>
      </g>
     </g>
    </g>
    <g id="ytick_4">
     <g id="line2d_15">
      <path clip-path="url(#pd8adcf7cef)" d="M 72.862969 169.6866 
L 463.462969 169.6866 
" style="fill:none;stroke:#cccccc;stroke-linecap:square;stroke-width:1.12;"/>
     </g>
     <g id="line2d_16"/>
     <g id="text_12">
      <!-- 30.00% -->
      <g style="fill:#262626;" transform="translate(24.53125 174.205866)scale(0.126 -0.126)">
       <defs>
        <path d="M 25.984375 -1.90625 
Q 13.578125 -1.90625 7.984375 4.90625 
Q 2.390625 11.71875 2.390625 21.484375 
L 11.578125 21.484375 
Q 12.15625 14.703125 14.109375 11.625 
Q 17.53125 6.109375 26.46875 6.109375 
Q 33.40625 6.109375 37.59375 9.8125 
Q 41.796875 13.53125 41.796875 19.390625 
Q 41.796875 26.609375 37.375 29.484375 
Q 32.953125 32.375 25.09375 32.375 
Q 24.21875 32.375 23.3125 32.34375 
Q 22.40625 32.328125 21.484375 32.28125 
L 21.484375 40.046875 
Q 22.859375 39.890625 23.78125 39.84375 
Q 24.703125 39.796875 25.78125 39.796875 
Q 30.71875 39.796875 33.890625 41.359375 
Q 39.453125 44.09375 39.453125 51.125 
Q 39.453125 56.34375 35.734375 59.171875 
Q 32.03125 62.015625 27.09375 62.015625 
Q 18.3125 62.015625 14.9375 56.15625 
Q 13.09375 52.9375 12.84375 46.96875 
L 4.15625 46.96875 
Q 4.15625 54.78125 7.28125 60.25 
Q 12.640625 70.015625 26.171875 70.015625 
Q 36.859375 70.015625 42.71875 65.25 
Q 48.578125 60.5 48.578125 51.46875 
Q 48.578125 45.015625 45.125 41.015625 
Q 42.96875 38.53125 39.546875 37.109375 
Q 45.0625 35.59375 48.15625 31.265625 
Q 51.265625 26.953125 51.265625 20.703125 
Q 51.265625 10.6875 44.671875 4.390625 
Q 38.09375 -1.90625 25.984375 -1.90625 
z
" id="Helvetica-51"/>
       </defs>
       <use xlink:href="#Helvetica-51"/>
       <use x="55.615234" xlink:href="#Helvetica-48"/>
       <use x="111.230469" xlink:href="#Helvetica-46"/>
       <use x="139.013672" xlink:href="#Helvetica-48"/>
       <use x="194.628906" xlink:href="#Helvetica-48"/>
       <use x="250.244141" xlink:href="#Helvetica-37"/>
      </g>
     </g>
    </g>
    <g id="ytick_5">
     <g id="line2d_17">
      <path clip-path="url(#pd8adcf7cef)" d="M 72.862969 104.4546 
L 463.462969 104.4546 
" style="fill:none;stroke:#cccccc;stroke-linecap:square;stroke-width:1.12;"/>
     </g>
     <g id="line2d_18"/>
     <g id="text_13">
      <!-- 40.00% -->
      <g style="fill:#262626;" transform="translate(24.53125 108.973866)scale(0.126 -0.126)">
       <defs>
        <path d="M 33.0625 24.75 
L 33.0625 56.453125 
L 10.640625 24.75 
z
M 33.203125 0 
L 33.203125 17.09375 
L 2.546875 17.09375 
L 2.546875 25.6875 
L 34.578125 70.125 
L 42 70.125 
L 42 24.75 
L 52.296875 24.75 
L 52.296875 17.09375 
L 42 17.09375 
L 42 0 
z
" id="Helvetica-52"/>
       </defs>
       <use xlink:href="#Helvetica-52"/>
       <use x="55.615234" xlink:href="#Helvetica-48"/>
       <use x="111.230469" xlink:href="#Helvetica-46"/>
       <use x="139.013672" xlink:href="#Helvetica-48"/>
       <use x="194.628906" xlink:href="#Helvetica-48"/>
       <use x="250.244141" xlink:href="#Helvetica-37"/>
      </g>
     </g>
    </g>
    <g id="ytick_6">
     <g id="line2d_19">
      <path clip-path="url(#pd8adcf7cef)" d="M 72.862969 39.2226 
L 463.462969 39.2226 
" style="fill:none;stroke:#cccccc;stroke-linecap:square;stroke-width:1.12;"/>
     </g>
     <g id="line2d_20"/>
     <g id="text_14">
      <!-- 50.00% -->
      <g style="fill:#262626;" transform="translate(24.53125 43.741866)scale(0.126 -0.126)">
       <defs>
        <path d="M 12.359375 17.828125 
Q 13.234375 10.296875 19.34375 7.421875 
Q 22.46875 5.953125 26.5625 5.953125 
Q 34.375 5.953125 38.125 10.9375 
Q 41.890625 15.921875 41.890625 21.96875 
Q 41.890625 29.296875 37.421875 33.296875 
Q 32.953125 37.3125 26.703125 37.3125 
Q 22.171875 37.3125 18.921875 35.546875 
Q 15.671875 33.796875 13.375 30.671875 
L 5.765625 31.109375 
L 11.078125 68.75 
L 47.40625 68.75 
L 47.40625 60.25 
L 17.671875 60.25 
L 14.703125 40.828125 
Q 17.140625 42.671875 19.34375 43.609375 
Q 23.25 45.21875 28.375 45.21875 
Q 37.984375 45.21875 44.671875 39.015625 
Q 51.375 32.8125 51.375 23.296875 
Q 51.375 13.375 45.234375 5.796875 
Q 39.109375 -1.765625 25.6875 -1.765625 
Q 17.140625 -1.765625 10.5625 3.046875 
Q 4 7.859375 3.21875 17.828125 
z
" id="Helvetica-53"/>
       </defs>
       <use xlink:href="#Helvetica-53"/>
       <use x="55.615234" xlink:href="#Helvetica-48"/>
       <use x="111.230469" xlink:href="#Helvetica-46"/>
       <use x="139.013672" xlink:href="#Helvetica-48"/>
       <use x="194.628906" xlink:href="#Helvetica-48"/>
       <use x="250.244141" xlink:href="#Helvetica-37"/>
      </g>
     </g>
    </g>
    <g id="text_15">
     <!-- % from total events -->
     <g style="fill:#262626;" transform="translate(17.52975 263.924475)rotate(-90)scale(0.144 -0.144)">
      <defs>
       <path id="Helvetica-32"/>
       <path d="M 8.640625 60.25 
Q 8.84375 65.71875 10.546875 68.265625 
Q 13.625 72.75 22.40625 72.75 
Q 23.25 72.75 24.125 72.703125 
Q 25 72.65625 26.125 72.5625 
L 26.125 64.546875 
Q 24.75 64.65625 24.140625 64.671875 
Q 23.53125 64.703125 23 64.703125 
Q 19 64.703125 18.21875 62.625 
Q 17.4375 60.546875 17.4375 52.046875 
L 26.125 52.046875 
L 26.125 45.125 
L 17.328125 45.125 
L 17.328125 0 
L 8.640625 0 
L 8.640625 45.125 
L 1.375 45.125 
L 1.375 52.046875 
L 8.640625 52.046875 
L 8.640625 60.25 
z
" id="Helvetica-102"/>
      </defs>
      <use xlink:href="#Helvetica-37"/>
      <use x="88.916016" xlink:href="#Helvetica-32"/>
      <use x="116.699219" xlink:href="#Helvetica-102"/>
      <use x="144.482422" xlink:href="#Helvetica-114"/>
      <use x="177.783203" xlink:href="#Helvetica-111"/>
      <use x="233.398438" xlink:href="#Helvetica-109"/>
      <use x="316.699219" xlink:href="#Helvetica-32"/>
      <use x="344.482422" xlink:href="#Helvetica-116"/>
      <use x="372.265625" xlink:href="#Helvetica-111"/>
      <use x="427.880859" xlink:href="#Helvetica-116"/>
      <use x="455.664062" xlink:href="#Helvetica-97"/>
      <use x="511.279297" xlink:href="#Helvetica-108"/>
      <use x="533.496094" xlink:href="#Helvetica-32"/>
      <use x="561.279297" xlink:href="#Helvetica-101"/>
      <use x="616.894531" xlink:href="#Helvetica-118"/>
      <use x="666.894531" xlink:href="#Helvetica-101"/>
      <use x="722.509766" xlink:href="#Helvetica-110"/>
      <use x="778.125" xlink:href="#Helvetica-116"/>
      <use x="805.908203" xlink:href="#Helvetica-115"/>
     </g>
    </g>
   </g>
   <g id="line2d_21">
    <path clip-path="url(#pd8adcf7cef)" d="M 0 0 
" style="fill:none;stroke:#424242;stroke-linecap:square;stroke-width:2.16;"/>
   </g>
   <g id="line2d_22">
    <path clip-path="url(#pd8adcf7cef)" d="M 0 0 
" style="fill:none;stroke:#424242;stroke-linecap:square;stroke-width:2.16;"/>
   </g>
   <g id="line2d_23">
    <path clip-path="url(#pd8adcf7cef)" d="M 0 0 
" style="fill:none;stroke:#424242;stroke-linecap:square;stroke-width:2.16;"/>
   </g>
   <g id="line2d_24">
    <path clip-path="url(#pd8adcf7cef)" d="M 0 0 
" style="fill:none;stroke:#424242;stroke-linecap:square;stroke-width:2.16;"/>
   </g>
   <g id="line2d_25">
    <path clip-path="url(#pd8adcf7cef)" d="M 0 0 
" style="fill:none;stroke:#424242;stroke-linecap:square;stroke-width:2.16;"/>
   </g>
   <g id="line2d_26">
    <path clip-path="url(#pd8adcf7cef)" d="M 0 0 
" style="fill:none;stroke:#424242;stroke-linecap:square;stroke-width:2.16;"/>
   </g>
   <g id="line2d_27">
    <path clip-path="url(#pd8adcf7cef)" d="M 0 0 
" style="fill:none;stroke:#424242;stroke-linecap:square;stroke-width:2.16;"/>
   </g>
   <g id="line2d_28">
    <path clip-path="url(#pd8adcf7cef)" d="M 0 0 
" style="fill:none;stroke:#424242;stroke-linecap:square;stroke-width:2.16;"/>
   </g>
   <g id="line2d_29">
    <path clip-path="url(#pd8adcf7cef)" d="M 0 0 
" style="fill:none;stroke:#424242;stroke-linecap:square;stroke-width:2.16;"/>
   </g>
   <g id="line2d_30">
    <path clip-path="url(#pd8adcf7cef)" d="M 0 0 
" style="fill:none;stroke:#424242;stroke-linecap:square;stroke-width:2.16;"/>
   </g>
   <g id="line2d_31">
    <path clip-path="url(#pd8adcf7cef)" d="M 0 0 
" style="fill:none;stroke:#424242;stroke-linecap:square;stroke-width:2.16;"/>
   </g>
   <g id="line2d_32">
    <path clip-path="url(#pd8adcf7cef)" d="M 0 0 
" style="fill:none;stroke:#424242;stroke-linecap:square;stroke-width:2.16;"/>
   </g>
   <g id="line2d_33">
    <path clip-path="url(#pd8adcf7cef)" d="M 0 0 
" style="fill:none;stroke:#424242;stroke-linecap:square;stroke-width:2.16;"/>
   </g>
   <g id="line2d_34">
    <path clip-path="url(#pd8adcf7cef)" d="M 0 0 
" style="fill:none;stroke:#424242;stroke-linecap:square;stroke-width:2.16;"/>
   </g>
   <g id="line2d_35">
    <path clip-path="url(#pd8adcf7cef)" d="M 0 0 
" style="fill:none;stroke:#424242;stroke-linecap:square;stroke-width:2.16;"/>
   </g>
   <g id="line2d_36">
    <path clip-path="url(#pd8adcf7cef)" d="M 0 0 
" style="fill:none;stroke:#424242;stroke-linecap:square;stroke-width:2.16;"/>
   </g>
   <g id="patch_19">
    <path d="M 72.862969 365.3826 
L 72.862969 39.2226 
" style="fill:none;stroke:#cccccc;stroke-linecap:square;stroke-linejoin:miter;stroke-width:1.12;"/>
   </g>
   <g id="patch_20">
    <path d="M 463.462969 365.3826 
L 463.462969 39.2226 
" style="fill:none;stroke:#cccccc;stroke-linecap:square;stroke-linejoin:miter;stroke-width:1.12;"/>
   </g>
   <g id="patch_21">
    <path d="M 72.862969 365.3826 
L 463.462969 365.3826 
" style="fill:none;stroke:#cccccc;stroke-linecap:square;stroke-linejoin:miter;stroke-width:1.12;"/>
   </g>
   <g id="patch_22">
    <path d="M 72.862969 39.2226 
L 463.462969 39.2226 
" style="fill:none;stroke:#cccccc;stroke-linecap:square;stroke-linejoin:miter;stroke-width:1.12;"/>
   </g>
   <g id="text_16">
    <!-- top 8 events in cluster 2 (size: 11.06%)  -->
    <g style="fill:#262626;" transform="translate(142.107844 17.6985)scale(0.144 -0.144)">
     <defs>
      <path d="M 27.203125 40.625 
Q 33.015625 40.625 36.28125 43.875 
Q 39.546875 47.125 39.546875 51.609375 
Q 39.546875 55.515625 36.421875 58.78125 
Q 33.296875 62.0625 26.90625 62.0625 
Q 20.5625 62.0625 17.71875 58.78125 
Q 14.890625 55.515625 14.890625 51.125 
Q 14.890625 46.1875 18.546875 43.40625 
Q 22.21875 40.625 27.203125 40.625 
z
M 27.734375 6 
Q 33.84375 6 37.859375 9.296875 
Q 41.890625 12.59375 41.890625 19.140625 
Q 41.890625 25.921875 37.734375 29.4375 
Q 33.59375 32.953125 27.09375 32.953125 
Q 20.796875 32.953125 16.8125 29.359375 
Q 12.84375 25.78125 12.84375 19.4375 
Q 12.84375 13.96875 16.484375 9.984375 
Q 20.125 6 27.734375 6 
z
M 15.234375 37.25 
Q 11.578125 38.8125 9.515625 40.921875 
Q 5.671875 44.828125 5.671875 51.078125 
Q 5.671875 58.890625 11.328125 64.5 
Q 17 70.125 27.390625 70.125 
Q 37.453125 70.125 43.15625 64.8125 
Q 48.875 59.515625 48.875 52.4375 
Q 48.875 45.90625 45.5625 41.84375 
Q 43.703125 39.546875 39.796875 37.359375 
Q 44.140625 35.359375 46.625 32.765625 
Q 51.265625 27.875 51.265625 20.0625 
Q 51.265625 10.84375 45.0625 4.421875 
Q 38.875 -2 27.546875 -2 
Q 17.328125 -2 10.265625 3.53125 
Q 3.21875 9.078125 3.21875 19.625 
Q 3.21875 25.828125 6.25 30.34375 
Q 9.28125 34.859375 15.234375 37.25 
z
" id="Helvetica-56"/>
      <path d="M 29.59375 72.90625 
Q 21.921875 58.015625 19.625 50.984375 
Q 16.15625 40.28125 16.15625 26.265625 
Q 16.15625 12.109375 20.125 0.390625 
Q 22.5625 -6.84375 29.734375 -20.40625 
L 23.828125 -20.40625 
Q 16.703125 -9.28125 14.984375 -6.203125 
Q 13.28125 -3.125 11.28125 2.15625 
Q 8.546875 9.375 7.46875 17.578125 
Q 6.9375 21.828125 6.9375 25.6875 
Q 6.9375 40.140625 11.46875 51.421875 
Q 14.359375 58.59375 23.484375 72.90625 
z
" id="Helvetica-40"/>
      <path d="M 2.546875 6.9375 
L 33.546875 44.4375 
L 4.828125 44.4375 
L 4.828125 52.296875 
L 45.359375 52.296875 
L 45.359375 45.125 
L 14.546875 7.859375 
L 46.296875 7.859375 
L 46.296875 0 
L 2.546875 0 
z
M 25.140625 53.5625 
z
" id="Helvetica-122"/>
      <path d="M 11.078125 51.609375 
L 21.296875 51.609375 
L 21.296875 40.96875 
L 11.078125 40.96875 
z
M 11.078125 10.640625 
L 21.296875 10.640625 
L 21.296875 0 
L 11.078125 0 
z
" id="Helvetica-58"/>
      <path d="M 29.25 70.21875 
Q 40.96875 70.21875 45.578125 64.140625 
Q 50.203125 58.0625 50.203125 51.609375 
L 41.5 51.609375 
Q 40.71875 55.765625 39.015625 58.109375 
Q 35.84375 62.5 29.390625 62.5 
Q 22.015625 62.5 17.671875 55.6875 
Q 13.328125 48.875 12.84375 36.1875 
Q 15.875 40.625 20.453125 42.828125 
Q 24.65625 44.78125 29.828125 44.78125 
Q 38.625 44.78125 45.15625 39.15625 
Q 51.703125 33.546875 51.703125 22.40625 
Q 51.703125 12.890625 45.5 5.53125 
Q 39.3125 -1.8125 27.828125 -1.8125 
Q 18.015625 -1.8125 10.890625 5.640625 
Q 3.765625 13.09375 3.765625 30.71875 
Q 3.765625 43.75 6.9375 52.828125 
Q 13.03125 70.21875 29.25 70.21875 
z
M 28.609375 6 
Q 35.546875 6 38.984375 10.65625 
Q 42.4375 15.328125 42.4375 21.6875 
Q 42.4375 27.046875 39.359375 31.90625 
Q 36.28125 36.765625 28.171875 36.765625 
Q 22.515625 36.765625 18.234375 33 
Q 13.96875 29.25 13.96875 21.6875 
Q 13.96875 15.046875 17.84375 10.515625 
Q 21.734375 6 28.609375 6 
z
" id="Helvetica-54"/>
      <path d="M 3.46875 -20.40625 
Q 11.234375 -5.28125 13.484375 1.65625 
Q 16.890625 12.15625 16.890625 26.265625 
Q 16.890625 40.375 12.9375 52.09375 
Q 10.5 59.328125 3.328125 72.90625 
L 9.234375 72.90625 
Q 16.75 60.890625 18.328125 58.078125 
Q 19.921875 55.28125 21.78125 50.34375 
Q 24.125 44.234375 25.125 38.28125 
Q 26.125 32.328125 26.125 26.8125 
Q 26.125 12.359375 21.53125 1.03125 
Q 18.65625 -6.25 9.578125 -20.40625 
z
" id="Helvetica-41"/>
     </defs>
     <use xlink:href="#Helvetica-116"/>
     <use x="27.783203" xlink:href="#Helvetica-111"/>
     <use x="83.398438" xlink:href="#Helvetica-112"/>
     <use x="139.013672" xlink:href="#Helvetica-32"/>
     <use x="166.796875" xlink:href="#Helvetica-56"/>
     <use x="222.412109" xlink:href="#Helvetica-32"/>
     <use x="250.195312" xlink:href="#Helvetica-101"/>
     <use x="305.810547" xlink:href="#Helvetica-118"/>
     <use x="355.810547" xlink:href="#Helvetica-101"/>
     <use x="411.425781" xlink:href="#Helvetica-110"/>
     <use x="467.041016" xlink:href="#Helvetica-116"/>
     <use x="494.824219" xlink:href="#Helvetica-115"/>
     <use x="544.824219" xlink:href="#Helvetica-32"/>
     <use x="572.607422" xlink:href="#Helvetica-105"/>
     <use x="594.824219" xlink:href="#Helvetica-110"/>
     <use x="650.439453" xlink:href="#Helvetica-32"/>
     <use x="678.222656" xlink:href="#Helvetica-99"/>
     <use x="728.222656" xlink:href="#Helvetica-108"/>
     <use x="750.439453" xlink:href="#Helvetica-117"/>
     <use x="806.054688" xlink:href="#Helvetica-115"/>
     <use x="856.054688" xlink:href="#Helvetica-116"/>
     <use x="883.837891" xlink:href="#Helvetica-101"/>
     <use x="939.453125" xlink:href="#Helvetica-114"/>
     <use x="972.753906" xlink:href="#Helvetica-32"/>
     <use x="1000.537109" xlink:href="#Helvetica-50"/>
     <use x="1056.152344" xlink:href="#Helvetica-32"/>
     <use x="1083.935547" xlink:href="#Helvetica-40"/>
     <use x="1117.236328" xlink:href="#Helvetica-115"/>
     <use x="1167.236328" xlink:href="#Helvetica-105"/>
     <use x="1189.453125" xlink:href="#Helvetica-122"/>
     <use x="1239.453125" xlink:href="#Helvetica-101"/>
     <use x="1295.068359" xlink:href="#Helvetica-58"/>
     <use x="1322.851562" xlink:href="#Helvetica-32"/>
     <use x="1350.634766" xlink:href="#Helvetica-49"/>
     <use x="1406.25" xlink:href="#Helvetica-49"/>
     <use x="1461.865234" xlink:href="#Helvetica-46"/>
     <use x="1489.648438" xlink:href="#Helvetica-48"/>
     <use x="1545.263672" xlink:href="#Helvetica-54"/>
     <use x="1600.878906" xlink:href="#Helvetica-37"/>
     <use x="1689.794922" xlink:href="#Helvetica-41"/>
     <use x="1723.095703" xlink:href="#Helvetica-32"/>
    </g>
    <!-- vs. cluster 7 (size: 7.28%) -->
    <g style="fill:#262626;" transform="translate(185.739844 33.2226)scale(0.144 -0.144)">
     <defs>
      <path d="M 52.296875 68.75 
L 52.296875 61.078125 
Q 48.921875 57.8125 43.328125 49.703125 
Q 37.75 41.609375 33.453125 32.234375 
Q 29.203125 23.09375 27 15.578125 
Q 25.59375 10.75 23.34375 0 
L 13.625 0 
Q 16.9375 20.015625 28.265625 39.84375 
Q 34.96875 51.46875 42.328125 59.90625 
L 3.65625 59.90625 
L 3.65625 68.75 
z
" id="Helvetica-55"/>
     </defs>
     <use xlink:href="#Helvetica-118"/>
     <use x="50" xlink:href="#Helvetica-115"/>
     <use x="100" xlink:href="#Helvetica-46"/>
     <use x="127.783203" xlink:href="#Helvetica-32"/>
     <use x="155.566406" xlink:href="#Helvetica-99"/>
     <use x="205.566406" xlink:href="#Helvetica-108"/>
     <use x="227.783203" xlink:href="#Helvetica-117"/>
     <use x="283.398438" xlink:href="#Helvetica-115"/>
     <use x="333.398438" xlink:href="#Helvetica-116"/>
     <use x="361.181641" xlink:href="#Helvetica-101"/>
     <use x="416.796875" xlink:href="#Helvetica-114"/>
     <use x="450.097656" xlink:href="#Helvetica-32"/>
     <use x="477.880859" xlink:href="#Helvetica-55"/>
     <use x="533.496094" xlink:href="#Helvetica-32"/>
     <use x="561.279297" xlink:href="#Helvetica-40"/>
     <use x="594.580078" xlink:href="#Helvetica-115"/>
     <use x="644.580078" xlink:href="#Helvetica-105"/>
     <use x="666.796875" xlink:href="#Helvetica-122"/>
     <use x="716.796875" xlink:href="#Helvetica-101"/>
     <use x="772.412109" xlink:href="#Helvetica-58"/>
     <use x="800.195312" xlink:href="#Helvetica-32"/>
     <use x="827.978516" xlink:href="#Helvetica-55"/>
     <use x="883.59375" xlink:href="#Helvetica-46"/>
     <use x="911.376953" xlink:href="#Helvetica-50"/>
     <use x="966.992188" xlink:href="#Helvetica-56"/>
     <use x="1022.607422" xlink:href="#Helvetica-37"/>
     <use x="1111.523438" xlink:href="#Helvetica-41"/>
    </g>
   </g>
   <g id="legend_1">
    <g id="patch_23">
     <path d="M 485.512969 78.932288 
L 573.449156 78.932288 
Q 575.969156 78.932288 575.969156 76.412288 
L 575.969156 41.7426 
Q 575.969156 39.2226 573.449156 39.2226 
L 485.512969 39.2226 
Q 482.992969 39.2226 482.992969 41.7426 
L 482.992969 76.412288 
Q 482.992969 78.932288 485.512969 78.932288 
z
" style="fill:#ffffff;opacity:0.8;stroke:#cccccc;stroke-linejoin:miter;stroke-width:0.16;"/>
    </g>
    <g id="patch_24">
     <path d="M 488.032969 53.301131 
L 513.232969 53.301131 
L 513.232969 44.481131 
L 488.032969 44.481131 
z
" style="fill:#4775b4;"/>
    </g>
    <g id="text_17">
     <!-- cluster 2 -->
     <g style="fill:#262626;" transform="translate(523.312969 53.301131)scale(0.126 -0.126)">
      <use xlink:href="#Helvetica-99"/>
      <use x="50" xlink:href="#Helvetica-108"/>
      <use x="72.216797" xlink:href="#Helvetica-117"/>
      <use x="127.832031" xlink:href="#Helvetica-115"/>
      <use x="177.832031" xlink:href="#Helvetica-116"/>
      <use x="205.615234" xlink:href="#Helvetica-101"/>
      <use x="261.230469" xlink:href="#Helvetica-114"/>
      <use x="294.53125" xlink:href="#Helvetica-32"/>
      <use x="322.314453" xlink:href="#Helvetica-50"/>
     </g>
    </g>
    <g id="patch_25">
     <path d="M 488.032969 71.265975 
L 513.232969 71.265975 
L 513.232969 62.445975 
L 488.032969 62.445975 
z
" style="fill:#7f9a49;"/>
    </g>
    <g id="text_18">
     <!-- cluster 7 -->
     <g style="fill:#262626;" transform="translate(523.312969 71.265975)scale(0.126 -0.126)">
      <use xlink:href="#Helvetica-99"/>
      <use x="50" xlink:href="#Helvetica-108"/>
      <use x="72.216797" xlink:href="#Helvetica-117"/>
      <use x="127.832031" xlink:href="#Helvetica-115"/>
      <use x="177.832031" xlink:href="#Helvetica-116"/>
      <use x="205.615234" xlink:href="#Helvetica-101"/>
      <use x="261.230469" xlink:href="#Helvetica-114"/>
      <use x="294.53125" xlink:href="#Helvetica-32"/>
      <use x="322.314453" xlink:href="#Helvetica-55"/>
     </g>
    </g>
   </g>
  </g>
 </g>
 <defs>
  <clipPath id="pd8adcf7cef">
   <rect height="326.16" width="390.6" x="72.862969" y="39.2226"/>
  </clipPath>
 </defs>
</svg>
