<svg xmlns="http://www.w3.org/2000/svg" fill="none" stroke="#459db9" stroke-width="18" stroke-linecap="round"
     stroke-linejoin="round" viewBox="0 0 360 360">
    <path d="M277.6 223.2v88.2m-33.9-34 33.9 34m33.9-34-33.9 34M252 190.5a103 103 0 0 0 5.6-16.2l35.6-5.1v-41.4l-35.6-5.2c-2.5-9.4-6.2-18.3-11-26.5L268 67l-29-29-29 21.5c-8.2-4.8-17.1-8.6-26.6-11l-5.2-35.7H137l-5.2 35.7c-9.4 2.4-18.4 6.2-26.6 11L76.2 38 47 67.2 68.6 96c-4.9 8.2-8.6 17-11 26.5l-35.7 5.2v41.4l35.7 5.1a99 99 0 0 0 11 26.6L47 230l29.2 29 29-21.6c8.1 4.8 17 8.6 26.5 11l5.2 35.7h41.3l5.2-35.7c9.5-2.4 18.4-6.2 26.6-11"/>
    <circle cx="157.6" cy="148.5" r="51.4"/>
    <path d="M214.5 311.8v34.4h126.9v-34.4"/>
</svg>
