<svg xmlns="http://www.w3.org/2000/svg" fill="none" stroke="#459db9" stroke-linecap="round" stroke-linejoin="round"
     stroke-width="18" viewBox="0 0 360 360">
    <path d="M43.8 158h68.1m-98.1-42.3h78.1M53.8 73.3h58.1m80.5 2.7h-.6c-2.4.2-4.7.9-6.8 2l-57.5 30.7 15.4 30.8 51.2-27.6 30 10-79.3 119h-69v34.5H154c5.7 0 11.1-2.9 14.3-7.7l27.9-41.8c1.1 2.7 2.9 5.1 5.2 7l37.6 30-33.1 66.1 30.8 15.4 39.4-78.5a17.3 17.3 0 0 0-4.7-21.2l-36.1-29L265 171l8.3 24.7a17 17 0 0 0 13 11.5l53.8 10.7v-34.5l-37.3-8-16.2-48.8a18 18 0 0 0-4.2-6.7h0l-18.8-18.8a18 18 0 0 0-7.3-4.8L198.2 77a19 19 0 0 0-5.8-.9h0ZM347 67.2a34 34 0 1 1-67.9 0 34 34 0 0 1 68 0Z"/>
</svg>
