<?xml version="1.0" encoding="utf-8"?>
<!-- Generator: Adobe Illustrator 22.1.0, SVG Export Plug-In . SVG Version: 6.00 Build 0)  -->
<svg version="1.2" baseProfile="tiny" id="Layer_1" xmlns="http://www.w3.org/2000/svg" xmlns:xlink="http://www.w3.org/1999/xlink"
	 x="0px" y="0px" viewBox="0 0 795.6 133.2" xml:space="preserve">
<g>
	<path fill="#30302F" d="M108.9,74.5c3.1-1.4,5.4-3.3,7.1-5.9c1.7-2.6,2.5-5.6,2.5-9.1c0-3.6-0.8-6.6-2.5-9.2
		c-1.7-2.6-4-4.6-7.1-5.9c-3.1-1.4-6.7-2.1-11-2.1H77.3v47.5h11V76.6h9.6c0.2,0,0.3,0,0.5,0l9.1,13.2h11.9L108.9,74.5
		C108.8,74.6,108.8,74.5,108.9,74.5z M104.9,53.4c1.7,1.4,2.5,3.5,2.5,6.1c0,2.6-0.8,4.6-2.5,6.1c-1.7,1.5-4.2,2.2-7.6,2.2h-9V51.3
		h9C100.7,51.3,103.2,52,104.9,53.4z"/>
	<polygon fill="#30302F" points="138.1,70 160.1,70 160.1,61.4 138.1,61.4 138.1,51.1 163,51.1 163,42.3 127.2,42.3 127.2,89.8
		163.9,89.8 163.9,81 138.1,81 	"/>
	<polygon fill="#30302F" points="167.3,51.3 182.5,51.3 182.5,89.8 193.5,89.8 193.5,51.3 208.7,51.3 208.7,42.3 167.3,42.3 	"/>
	<polygon fill="#30302F" points="225.5,70 247.5,70 247.5,61.4 225.5,61.4 225.5,51.1 250.4,51.1 250.4,42.3 214.6,42.3 214.6,89.8
		251.3,89.8 251.3,81 225.5,81 	"/>
	<polygon fill="#30302F" points="292.8,71.1 269.2,42.3 260.1,42.3 260.1,89.8 270.9,89.8 270.9,61 294.6,89.8 303.6,89.8
		303.6,42.3 292.8,42.3 	"/>
	<polygon fill="#30302F" points="309.5,51.3 324.7,51.3 324.7,89.8 335.7,89.8 335.7,51.3 350.9,51.3 350.9,42.3 309.5,42.3 	"/>
	<rect x="356.8" y="42.3" fill="#30302F" width="11" height="47.5"/>
	<path fill="#30302F" d="M420.5,48.5c-2.3-2.2-5.1-3.9-8.2-5.2c-3.1-1.2-6.6-1.8-10.3-1.8c-3.7,0-7.1,0.6-10.3,1.8
		c-3.2,1.2-5.9,2.9-8.3,5.2c-2.3,2.2-4.2,4.8-5.5,7.8c-1.3,3-1.9,6.2-1.9,9.8s0.6,6.8,1.9,9.8c1.3,3,3.1,5.6,5.4,7.8
		c2.3,2.2,5.1,3.9,8.3,5.2c3.2,1.2,6.7,1.8,10.4,1.8c3.7,0,7.1-0.6,10.3-1.8c3.1-1.2,5.9-2.9,8.2-5.1c2.3-2.2,4.1-4.8,5.5-7.8
		c1.3-3,2-6.3,2-9.8c0-3.6-0.7-6.8-2-9.8S422.9,50.7,420.5,48.5z M415.7,72.2c-0.7,1.9-1.8,3.5-3.2,4.8c-1.4,1.4-2.9,2.4-4.7,3.1
		c-1.8,0.7-3.7,1.1-5.9,1.1c-2.1,0-4.1-0.4-5.9-1.1c-1.8-0.7-3.4-1.8-4.7-3.1c-1.3-1.4-2.4-3-3.1-4.8c-0.7-1.9-1.1-3.9-1.1-6.1
		c0-2.3,0.4-4.3,1.1-6.2c0.7-1.9,1.8-3.5,3.2-4.8c1.4-1.4,2.9-2.4,4.7-3.1c1.8-0.7,3.7-1.1,5.9-1.1c2.1,0,4.1,0.4,5.9,1.1
		c1.8,0.7,3.4,1.8,4.7,3.1c1.3,1.4,2.4,3,3.1,4.8c0.7,1.9,1.1,3.9,1.1,6.2C416.8,68.3,416.5,70.4,415.7,72.2z"/>
	<polygon fill="#30302F" points="468.9,71.1 445.3,42.3 436.2,42.3 436.2,89.8 447.1,89.8 447.1,61 470.8,89.8 479.8,89.8
		479.8,42.3 468.9,42.3 	"/>
	<polygon fill="#30302F" points="498.1,67.8 522.7,67.8 522.7,63.5 498.1,63.5 498.1,46.7 525.7,46.7 525.7,42.3 493.1,42.3
		493.1,89.8 526.7,89.8 526.7,85.5 498.1,85.5 	"/>
	<polygon fill="#30302F" points="543.5,67.8 568.1,67.8 568.1,63.5 543.5,63.5 543.5,46.7 571,46.7 571,42.3 538.5,42.3 538.5,89.8
		572.1,89.8 572.1,85.5 543.5,85.5 	"/>
	<path fill="#30302F" d="M612,72.8c2.9-1.3,5.1-3.1,6.7-5.6c1.6-2.4,2.3-5.3,2.3-8.6c0-3.4-0.8-6.4-2.3-8.8
		c-1.6-2.4-3.8-4.3-6.7-5.6c-2.9-1.3-6.4-1.9-10.4-1.9h-17.8v47.5h5V74.7h12.7c1.3,0,2.6-0.1,3.8-0.2l10.8,15.3h5.5l-11.6-16.3
		C610.8,73.3,611.4,73.1,612,72.8z M601.5,70.5h-12.6V46.7h12.6c4.7,0,8.3,1,10.8,3.1c2.5,2.1,3.7,5,3.7,8.8c0,3.8-1.2,6.7-3.7,8.7
		C609.8,69.4,606.2,70.5,601.5,70.5z"/>
	<rect x="632.9" y="42.3" fill="#30302F" width="5" height="47.5"/>
	<polygon fill="#30302F" points="688.1,80.8 657.5,42.3 653.4,42.3 653.4,89.8 658.4,89.8 658.4,51.3 688.9,89.8 693,89.8 693,42.3
		688.1,42.3 	"/>
	<path fill="#30302F" d="M741.9,82c-1.5,1.1-3,1.9-4.7,2.5c-2.4,0.8-5,1.2-7.7,1.2c-2.9,0-5.6-0.5-8-1.5s-4.6-2.3-6.4-4.1
		c-1.8-1.8-3.3-3.9-4.3-6.3c-1-2.4-1.5-5-1.5-7.8c0-2.8,0.5-5.5,1.5-7.8c1-2.4,2.4-4.5,4.3-6.2c1.8-1.8,4-3.2,6.4-4.1
		s5.2-1.5,8.1-1.5c2.8,0,5.3,0.4,7.7,1.3c2.4,0.9,4.6,2.3,6.6,4.3l3.1-3.2c-2.1-2.3-4.7-4-7.7-5.2c-3-1.1-6.3-1.7-9.9-1.7
		c-3.6,0-7,0.6-10,1.8c-3.1,1.2-5.7,2.9-8,5.1c-2.3,2.2-4,4.7-5.3,7.7c-1.2,2.9-1.9,6.1-1.9,9.6c0,3.5,0.6,6.7,1.9,9.6
		c1.2,2.9,3,5.5,5.2,7.7s4.9,3.9,7.9,5.1c3.1,1.2,6.4,1.8,10,1.8c3.3,0,6.5-0.5,9.5-1.5c3-1,5.7-2.5,7.9-4.5V66.1h-4.8V82z"/>
</g>
<rect x="0.1" y="31.8" fill="#30302F" width="16.3" height="68.4"/>
</svg>
