<?xml version="1.0" encoding="UTF-8" standalone="no"?>
<!DOCTYPE svg PUBLIC "-//W3C//DTD SVG 1.1//EN" "http://www.w3.org/Graphics/SVG/1.1/DTD/svg11.dtd">
<svg xmlns="http://www.w3.org/2000/svg" xmlns:xlink="http://www.w3.org/1999/xlink" version="1.1" width="700pt" height="200pt" viewBox="0 0 700 200">
<g enable-background="new">
<clipPath id="cp6">
<path transform="matrix(1,0,0,-1,0,540)" d="M 0 .00001206994 L 959.76 .00001206994 L 959.76 540 L 0 540 Z "/>
</clipPath>
<g clip-path="url(#cp6)">
<path transform="matrix(1,0,0,-1,0,540)" d="M 0 540 L 959.76 540 L 959.76 .00001206994 L 0 .00001206994 Z " fill="#ffffff"/>
</g>
<path transform="matrix(1,0,0,-1,0,540)" d="M 0 540 L 960 540 L 960 .0000140816 L 0 .0000140816 Z " fill="#ffffff"/>
<text xml:space="preserve" transform="matrix(.24 0 -0 .24 54.27118 630.95999)" font-size="75" font-family="Calibri"><tspan y="-2250" x="0 39.585004 68.745 106.23001 132.24 149.40001">user 2</tspan></text>
<path transform="matrix(1,0,0,-1,0,540)" d="M 112.4883 465.5412 C 112.4883 467.9442 114.4364 469.8923 116.8395 469.8923 L 173.5918 469.8923 C 175.9949 469.8923 177.9429 467.9442 177.9429 465.5412 L 177.9429 448.1371 C 177.9429 445.7341 175.9949 443.786 173.5918 443.786 L 116.8395 443.786 C 114.4364 443.786 112.4883 445.7341 112.4883 448.1371 Z " fill="#2e75b6"/>
<path transform="matrix(.00007874016,0,0,.00007874016,112.4883,70.1077)" stroke-width="12700" stroke-linecap="butt" stroke-miterlimit="8" stroke-linejoin="miter" fill="none" stroke="#000000" d="M 0 55259.24 C 0 24740.4 24740.35 0 55259.11 0 L 776013.9 0 C 806532.7 0 831273 24740.4 831273 55259.24 L 831273 276290.8 C 831273 306809.6 806532.7 331550 776013.9 331550 L 55259.11 331550 C 24740.35 331550 0 306809.6 0 276290.8 Z "/>
<text fill="#ffffff" xml:space="preserve" transform="matrix(.24 0 -0 .24 130.5906 627.83999)" font-size="58.33333" font-family="Calibri" font-weight="bold"><tspan y="-2250" x="0 47.39583 76.06666 90.67915">main</tspan></text>
<text xml:space="preserve" transform="matrix(.24 0 -0 .24 55.11866 595.92)" font-size="75" font-family="Calibri"><tspan y="-2250" x="0 39.585004 68.745 106.23001 132.24 149.40001">user 1</tspan></text>
<path transform="matrix(1,0,0,-1,0,540)" d="M 112.4883 500.5182 C 112.4883 502.9212 114.4364 504.8693 116.8395 504.8693 L 173.5918 504.8693 C 175.9949 504.8693 177.9429 502.9212 177.9429 500.5182 L 177.9429 483.1141 C 177.9429 480.7111 175.9949 478.763 173.5918 478.763 L 116.8395 478.763 C 114.4364 478.763 112.4883 480.7111 112.4883 483.1141 Z " fill="#2e75b6"/>
<path transform="matrix(.00007874016,0,0,.00007874016,112.4883,35.130708)" stroke-width="12700" stroke-linecap="butt" stroke-miterlimit="8" stroke-linejoin="miter" fill="none" stroke="#000000" d="M 0 55259.24 C 0 24740.4 24740.35 0 55259.11 0 L 776013.9 0 C 806532.7 0 831273 24740.4 831273 55259.24 L 831273 276290.8 C 831273 306809.6 806532.7 331550 776013.9 331550 L 55259.11 331550 C 24740.35 331550 0 306809.6 0 276290.8 Z "/>
<text fill="#ffffff" xml:space="preserve" transform="matrix(.24 0 -0 .24 130.5906 592.8)" font-size="58.33333" font-family="Calibri" font-weight="bold"><tspan y="-2250" x="0 47.39583 76.06666 90.67915">main</tspan></text>
<path transform="matrix(1,0,0,-1,0,540)" d="M 203.4064 500.5182 C 203.4064 502.9212 205.3544 504.8693 207.7575 504.8693 L 264.5098 504.8693 C 266.9129 504.8693 268.8609 502.9212 268.8609 500.5182 L 268.8609 483.1141 C 268.8609 480.7111 266.9129 478.763 264.5098 478.763 L 207.7575 478.763 C 205.3544 478.763 203.4064 480.7111 203.4064 483.1141 Z " fill="#2e75b6"/>
<path transform="matrix(.00007874016,0,0,.00007874016,203.4064,35.130708)" stroke-width="12700" stroke-linecap="butt" stroke-miterlimit="8" stroke-linejoin="miter" fill="none" stroke="#000000" d="M 0 55259.24 C 0 24740.4 24740.35 0 55259.11 0 L 776013.9 0 C 806532.7 0 831273 24740.4 831273 55259.24 L 831273 276290.8 C 831273 306809.6 806532.7 331550 776013.9 331550 L 55259.11 331550 C 24740.35 331550 0 306809.6 0 276290.8 Z "/>
<text fill="#ffffff" xml:space="preserve" transform="matrix(.24 0 -0 .24 215.2437 592.8)" font-size="58.33333" font-family="Calibri" font-weight="bold"><tspan y="-2250" x="0 24.144165 52.254999 72.02416 100.659999 115.237499 146.49832">catalog</tspan></text>
<path transform="matrix(1,0,0,-1,0,540)" d="M 294.3245 500.5182 C 294.3245 502.9212 296.2725 504.8693 298.6756 504.8693 L 355.4279 504.8693 C 357.831 504.8693 359.7791 502.9212 359.7791 500.5182 L 359.7791 483.1141 C 359.7791 480.7111 357.831 478.763 355.4279 478.763 L 298.6756 478.763 C 296.2725 478.763 294.3245 480.7111 294.3245 483.1141 Z " fill="#2e75b6"/>
<path transform="matrix(.00007874016,0,0,.00007874016,294.3245,35.130708)" stroke-width="12700" stroke-linecap="butt" stroke-miterlimit="8" stroke-linejoin="miter" fill="none" stroke="#000000" d="M 0 55259.24 C 0 24740.4 24740.35 0 55259.11 0 L 776013.9 0 C 806532.7 0 831273 24740.4 831273 55259.24 L 831273 276290.8 C 831273 306809.6 806532.7 331550 776013.9 331550 L 55259.11 331550 C 24740.35 331550 0 306809.6 0 276290.8 Z "/>
<text fill="#ffffff" xml:space="preserve" transform="matrix(.24 0 -0 .24 304.2618 592.8)" font-size="58.33333" font-family="Calibri" font-weight="bold"><tspan y="-2250" x="0 31.249165 51.356664 82.60583 113.854999 145.10416">produc</tspan></text>
<text fill="#ffffff" xml:space="preserve" transform="matrix(.24 0 -0 .24 344.9668 592.8)" font-size="58.33333" font-family="Calibri" font-weight="bold"><tspan y="-2250" x="0">t</tspan></text>
<path transform="matrix(1,0,0,-1,0,540)" d="M 468.8621 500.5182 C 468.8621 502.9212 470.8101 504.8693 473.2132 504.8693 L 529.9655 504.8693 C 532.3686 504.8693 534.3166 502.9212 534.3166 500.5182 L 534.3166 483.1141 C 534.3166 480.7111 532.3686 478.763 529.9655 478.763 L 473.2132 478.763 C 470.8101 478.763 468.8621 480.7111 468.8621 483.1141 Z " fill="#2e75b6"/>
<path transform="matrix(.00007874016,0,0,.00007874016,468.8621,35.130708)" stroke-width="12700" stroke-linecap="butt" stroke-miterlimit="8" stroke-linejoin="miter" fill="none" stroke="#000000" d="M 0 55259.24 C 0 24740.4 24740.35 0 55259.11 0 L 776013.9 0 C 806532.7 0 831273 24740.4 831273 55259.24 L 831273 276290.8 C 831273 306809.6 806532.7 331550 776013.9 331550 L 55259.11 331550 C 24740.35 331550 0 306809.6 0 276290.8 Z "/>
<text fill="#ffffff" xml:space="preserve" transform="matrix(.24 0 -0 .24 480.6993 592.8)" font-size="58.33333" font-family="Calibri" font-weight="bold"><tspan y="-2250" x="0 24.144165 52.254999 72.02416 100.659999 115.237499">catalo</tspan></text>
<text fill="#ffffff" xml:space="preserve" transform="matrix(.24 0 -0 .24 515.8543 592.8)" font-size="58.33333" font-family="Calibri" font-weight="bold"><tspan y="-2250" x="0">g</tspan></text>
<path transform="matrix(1,0,0,-1,0,540)" d="M 381.7398 500.5182 C 381.7398 502.9212 383.6878 504.8693 386.0909 504.8693 L 442.8432 504.8693 C 445.2463 504.8693 447.1943 502.9212 447.1943 500.5182 L 447.1943 483.1141 C 447.1943 480.7111 445.2463 478.763 442.8432 478.763 L 386.0909 478.763 C 383.6878 478.763 381.7398 480.7111 381.7398 483.1141 Z " fill="#2e75b6"/>
<path transform="matrix(.00007874016,0,0,.00007874016,381.7398,35.130708)" stroke-width="12700" stroke-linecap="butt" stroke-miterlimit="8" stroke-linejoin="miter" fill="none" stroke="#000000" d="M 0 55259.24 C 0 24740.4 24740.35 0 55259.11 0 L 776013.9 0 C 806532.7 0 831273 24740.4 831273 55259.24 L 831273 276290.8 C 831273 306809.6 806532.7 331550 776013.9 331550 L 55259.11 331550 C 24740.35 331550 0 306809.6 0 276290.8 Z "/>
<text fill="#ffffff" xml:space="preserve" transform="matrix(.24 0 -0 .24 403.1945 592.8)" font-size="58.33333" font-family="Calibri" font-weight="bold"><tspan y="-2250" x="0 24.144165 52.78">car</tspan></text>
<text fill="#ffffff" xml:space="preserve" transform="matrix(.24 0 -0 .24 420.8645 592.8)" font-size="58.33333" font-family="Calibri" font-weight="bold"><tspan y="-2250" x="0">t</tspan></text>
<path transform="matrix(1,0,0,-1,0,540)" d="M 177.9429 492.1714 L 198.4064 492.1714 L 198.4064 491.6714 L 177.9429 491.6714 Z M 197.4064 494.9214 L 203.4064 491.9213 L 197.4064 488.9214 Z " fill="#4472c4"/>
<path transform="matrix(1,0,0,-1,0,540)" d="M 268.8609 492.1714 L 289.3245 492.1714 L 289.3245 491.6714 L 268.8609 491.6714 Z M 288.3245 494.9214 L 294.3245 491.9213 L 288.3245 488.9214 Z " fill="#4472c4"/>
<path transform="matrix(1,0,0,-1,0,540)" d="M 359.779 492.1587 L 376.7397 492.1587 L 376.7397 491.6587 L 359.779 491.6587 Z M 375.7398 494.9087 L 381.7397 491.9087 L 375.7397 488.9087 Z " fill="#4472c4"/>
<path transform="matrix(1,0,0,-1,0,540)" d="M 447.1943 492.1587 L 463.862 492.1587 L 463.862 491.6587 L 447.1943 491.6587 Z M 462.862 494.9087 L 468.862 491.9087 L 462.862 488.9087 Z " fill="#4472c4"/>
<text xml:space="preserve" transform="matrix(.24 0 -0 .24 55.11866 665.76)" font-size="75" font-family="Calibri"><tspan y="-2250" x="0 39.585004 68.745 106.23001 132.24 149.40001">user 3</tspan></text>
<path transform="matrix(1,0,0,-1,0,540)" d="M 112.4883 430.5642 C 112.4883 432.9672 114.4364 434.9153 116.8395 434.9153 L 173.5918 434.9153 C 175.9949 434.9153 177.9429 432.9672 177.9429 430.5642 L 177.9429 413.1601 C 177.9429 410.757 175.9949 408.809 173.5918 408.809 L 116.8395 408.809 C 114.4364 408.809 112.4883 410.757 112.4883 413.1601 Z " fill="#2e75b6"/>
<path transform="matrix(.00007874016,0,0,.00007874016,112.4883,105.08469)" stroke-width="12700" stroke-linecap="butt" stroke-miterlimit="8" stroke-linejoin="miter" fill="none" stroke="#000000" d="M 0 55259.24 C 0 24740.4 24740.35 0 55259.11 0 L 776013.9 0 C 806532.7 0 831273 24740.4 831273 55259.24 L 831273 276290.8 C 831273 306809.6 806532.7 331550 776013.9 331550 L 55259.11 331550 C 24740.35 331550 0 306809.6 0 276290.8 Z "/>
<text fill="#ffffff" xml:space="preserve" transform="matrix(.24 0 -0 .24 130.5906 662.64)" font-size="58.33333" font-family="Calibri" font-weight="bold"><tspan y="-2250" x="0 47.39583 76.06666 90.67915">main</tspan></text>
<path transform="matrix(1,0,0,-1,0,540)" d="M 203.4324 430.5642 C 203.4324 432.9672 205.3804 434.9153 207.7835 434.9153 L 264.5358 434.9153 C 266.9389 434.9153 268.8869 432.9672 268.8869 430.5642 L 268.8869 413.1601 C 268.8869 410.757 266.9389 408.809 264.5358 408.809 L 207.7835 408.809 C 205.3804 408.809 203.4324 410.757 203.4324 413.1601 Z " fill="#2e75b6"/>
<path transform="matrix(.00007874016,0,0,.00007874016,203.4324,105.08469)" stroke-width="12700" stroke-linecap="butt" stroke-miterlimit="8" stroke-linejoin="miter" fill="none" stroke="#000000" d="M 0 55259.24 C 0 24740.4 24740.35 0 55259.11 0 L 776013.9 0 C 806532.7 0 831273 24740.4 831273 55259.24 L 831273 276290.8 C 831273 306809.6 806532.7 331550 776013.9 331550 L 55259.11 331550 C 24740.35 331550 0 306809.6 0 276290.8 Z "/>
<text fill="#ffffff" xml:space="preserve" transform="matrix(.24 0 -0 .24 215.2696 662.64)" font-size="58.33333" font-family="Calibri" font-weight="bold"><tspan y="-2250" x="0 24.144165 52.254999 72.02416 100.659999 115.237499 146.49832">catalog</tspan></text>
<path transform="matrix(1,0,0,-1,0,540)" d="M 294.3243 430.5642 C 294.3243 432.9672 296.2724 434.9153 298.6754 434.9153 L 355.4278 434.9153 C 357.8308 434.9153 359.7789 432.9672 359.7789 430.5642 L 359.7789 413.1601 C 359.7789 410.757 357.8308 408.809 355.4278 408.809 L 298.6754 408.809 C 296.2724 408.809 294.3243 410.757 294.3243 413.1601 Z " fill="#2e75b6"/>
<path transform="matrix(.00007874016,0,0,.00007874016,294.3243,105.08469)" stroke-width="12700" stroke-linecap="butt" stroke-miterlimit="8" stroke-linejoin="miter" fill="none" stroke="#000000" d="M 0 55259.24 C 0 24740.4 24740.35 0 55259.11 0 L 776013.9 0 C 806532.7 0 831273 24740.4 831273 55259.24 L 831273 276290.8 C 831273 306809.6 806532.7 331550 776013.9 331550 L 55259.11 331550 C 24740.35 331550 0 306809.6 0 276290.8 Z "/>
<text fill="#ffffff" xml:space="preserve" transform="matrix(.24 0 -0 .24 306.1616 662.64)" font-size="58.33333" font-family="Calibri" font-weight="bold"><tspan y="-2250" x="0 24.144165 52.254999 72.02416 100.659999 115.237499 146.49832">catalog</tspan></text>
<path transform="matrix(1,0,0,-1,0,540)" d="M 381.8703 430.5642 C 381.8703 432.9672 383.8184 434.9153 386.2214 434.9153 L 442.9738 434.9153 C 445.3768 434.9153 447.3249 432.9672 447.3249 430.5642 L 447.3249 413.1601 C 447.3249 410.757 445.3768 408.809 442.9738 408.809 L 386.2214 408.809 C 383.8184 408.809 381.8703 410.757 381.8703 413.1601 Z " fill="#2e75b6"/>
<path transform="matrix(.00007874016,0,0,.00007874016,381.8703,105.08469)" stroke-width="12700" stroke-linecap="butt" stroke-miterlimit="8" stroke-linejoin="miter" fill="none" stroke="#000000" d="M 0 55259.24 C 0 24740.4 24740.35 0 55259.11 0 L 776013.9 0 C 806532.7 0 831273 24740.4 831273 55259.24 L 831273 276290.8 C 831273 306809.6 806532.7 331550 776013.9 331550 L 55259.11 331550 C 24740.35 331550 0 306809.6 0 276290.8 Z "/>
<text fill="#ffffff" xml:space="preserve" transform="matrix(.24 0 -0 .24 391.8076 662.64)" font-size="58.33333" font-family="Calibri" font-weight="bold"><tspan y="-2250" x="0 31.249165 51.356664 82.60583 113.854999 145.10416">produc</tspan></text>
<text fill="#ffffff" xml:space="preserve" transform="matrix(.24 0 -0 .24 432.5126 662.64)" font-size="58.33333" font-family="Calibri" font-weight="bold"><tspan y="-2250" x="0">t</tspan></text>
<path transform="matrix(1,0,0,-1,0,540)" d="M 468.8621 430.5642 C 468.8621 432.9672 470.8102 434.9153 473.2132 434.9153 L 529.9656 434.9153 C 532.3686 434.9153 534.3167 432.9672 534.3167 430.5642 L 534.3167 413.1601 C 534.3167 410.757 532.3686 408.809 529.9656 408.809 L 473.2132 408.809 C 470.8102 408.809 468.8621 410.757 468.8621 413.1601 Z " fill="#2e75b6"/>
<path transform="matrix(.00007874016,0,0,.00007874016,468.8621,105.08469)" stroke-width="12700" stroke-linecap="butt" stroke-miterlimit="8" stroke-linejoin="miter" fill="none" stroke="#000000" d="M 0 55259.24 C 0 24740.4 24740.35 0 55259.11 0 L 776013.9 0 C 806532.7 0 831273 24740.4 831273 55259.24 L 831273 276290.8 C 831273 306809.6 806532.7 331550 776013.9 331550 L 55259.11 331550 C 24740.35 331550 0 306809.6 0 276290.8 Z "/>
<text fill="#ffffff" xml:space="preserve" transform="matrix(.24 0 -0 .24 490.3169 662.64)" font-size="58.33333" font-family="Calibri" font-weight="bold"><tspan y="-2250" x="0 24.144165 52.78">car</tspan></text>
<text fill="#ffffff" xml:space="preserve" transform="matrix(.24 0 -0 .24 507.9869 662.64)" font-size="58.33333" font-family="Calibri" font-weight="bold"><tspan y="-2250" x="0">t</tspan></text>
<path transform="matrix(1,0,0,-1,0,540)" d="M 555.8539 430.5642 C 555.8539 432.9672 557.802 434.9153 560.205 434.9153 L 616.9574 434.9153 C 619.3604 434.9153 621.3085 432.9672 621.3085 430.5642 L 621.3085 413.1601 C 621.3085 410.757 619.3604 408.809 616.9574 408.809 L 560.205 408.809 C 557.802 408.809 555.8539 410.757 555.8539 413.1601 Z " fill="#2e75b6"/>
<path transform="matrix(.00007874016,0,0,.00007874016,555.8539,105.08469)" stroke-width="12700" stroke-linecap="butt" stroke-miterlimit="8" stroke-linejoin="miter" fill="none" stroke="#000000" d="M 0 55259.24 C 0 24740.4 24740.35 0 55259.11 0 L 776013.9 0 C 806532.7 0 831273 24740.4 831273 55259.24 L 831273 276290.8 C 831273 306809.6 806532.7 331550 776013.9 331550 L 55259.11 331550 C 24740.35 331550 0 306809.6 0 276290.8 Z "/>
<text fill="#ffffff" xml:space="preserve" transform="matrix(.24 0 -0 .24 572.6662 662.64)" font-size="58.33333" font-family="Calibri" font-weight="bold"><tspan y="-2250" x="0 31.249165 51.356668 82.60583 111.75499">order</tspan></text>
<path transform="matrix(1,0,0,-1,0,540)" d="M 177.9429 422.2174 L 198.4324 422.2173 L 198.4324 421.7173 L 177.9429 421.7174 Z M 197.4324 424.9673 L 203.4324 421.9673 L 197.4324 418.9673 Z " fill="#4472c4"/>
<path transform="matrix(1,0,0,-1,0,540)" d="M 268.8869 422.1249 L 289.3243 422.1248 L 289.3243 421.6248 L 268.8869 421.6249 Z M 288.3243 424.8748 L 294.3243 421.8748 L 288.3243 418.8748 Z " fill="#4472c4"/>
<path transform="matrix(1,0,0,-1,0,540)" d="M 359.7789 422.2174 L 376.8703 422.2173 L 376.8703 421.7173 L 359.7789 421.7174 Z M 375.8703 424.9673 L 381.8703 421.9673 L 375.8703 418.9673 Z " fill="#4472c4"/>
<path transform="matrix(1,0,0,-1,0,540)" d="M 447.3249 422.3901 L 463.8621 422.39 L 463.8621 421.89 L 447.3249 421.8901 Z M 462.8621 425.14 L 468.8621 422.14 L 462.8621 419.14 Z " fill="#4472c4"/>
<path transform="matrix(1,0,0,-1,0,540)" d="M 534.3167 422.1121 L 550.8539 422.1121 L 550.8539 421.6121 L 534.3167 421.6121 Z M 549.8539 424.8621 L 555.8539 421.862 L 549.8539 418.8621 Z " fill="#4472c4"/>
<text xml:space="preserve" transform="matrix(.24 0 -0 .24 55.13685 700.8)" font-size="75" font-family="Calibri"><tspan y="-2250" x="0 39.585004 68.745 106.23001 132.24 149.40001">user 4</tspan></text>
<path transform="matrix(1,0,0,-1,0,540)" d="M 112.4883 395.5872 C 112.4883 397.9903 114.4364 399.9384 116.8395 399.9384 L 173.5918 399.9384 C 175.9949 399.9384 177.9429 397.9903 177.9429 395.5872 L 177.9429 378.1832 C 177.9429 375.7801 175.9949 373.8321 173.5918 373.8321 L 116.8395 373.8321 C 114.4364 373.8321 112.4883 375.7801 112.4883 378.1832 Z " fill="#2e75b6"/>
<path transform="matrix(.00007874016,0,0,.00007874016,112.4883,140.06162)" stroke-width="12700" stroke-linecap="butt" stroke-miterlimit="8" stroke-linejoin="miter" fill="none" stroke="#000000" d="M 0 55259.24 C 0 24740.4 24740.35 0 55259.11 0 L 776013.9 0 C 806532.7 0 831273 24740.4 831273 55259.24 L 831273 276290.8 C 831273 306809.6 806532.7 331550 776013.9 331550 L 55259.11 331550 C 24740.35 331550 0 306809.6 0 276290.8 Z "/>
<text fill="#ffffff" xml:space="preserve" transform="matrix(.24 0 -0 .24 124.3256 697.68)" font-size="58.33333" font-family="Calibri" font-weight="bold"><tspan y="-2250" x="0 24.144165 52.254999 72.02416 100.659999 115.237499">catalo</tspan></text>
<text fill="#ffffff" xml:space="preserve" transform="matrix(.24 0 -0 .24 159.4806 697.68)" font-size="58.33333" font-family="Calibri" font-weight="bold"><tspan y="-2250" x="0">g</tspan></text>
<path transform="matrix(1,0,0,-1,0,540)" d="M 203.2237 395.5872 C 203.2237 397.9903 205.1718 399.9384 207.5748 399.9384 L 264.3272 399.9384 C 266.7302 399.9384 268.6783 397.9903 268.6783 395.5872 L 268.6783 378.1832 C 268.6783 375.7801 266.7302 373.8321 264.3272 373.8321 L 207.5748 373.8321 C 205.1718 373.8321 203.2237 375.7801 203.2237 378.1832 Z " fill="#2e75b6"/>
<path transform="matrix(.00007874016,0,0,.00007874016,203.2237,140.06162)" stroke-width="12700" stroke-linecap="butt" stroke-miterlimit="8" stroke-linejoin="miter" fill="none" stroke="#000000" d="M 0 55259.24 C 0 24740.4 24740.35 0 55259.11 0 L 776013.9 0 C 806532.7 0 831273 24740.4 831273 55259.24 L 831273 276290.8 C 831273 306809.6 806532.7 331550 776013.9 331550 L 55259.11 331550 C 24740.35 331550 0 306809.6 0 276290.8 Z "/>
<text fill="#ffffff" xml:space="preserve" transform="matrix(.24 0 -0 .24 213.161 697.68)" font-size="58.33333" font-family="Calibri" font-weight="bold"><tspan y="-2250" x="0 31.249165 51.356664 82.60583 113.854999 145.10416">produc</tspan></text>
<text fill="#ffffff" xml:space="preserve" transform="matrix(.24 0 -0 .24 253.866 697.68)" font-size="58.33333" font-family="Calibri" font-weight="bold"><tspan y="-2250" x="0">t</tspan></text>
<path transform="matrix(1,0,0,-1,0,540)" d="M 293.959 395.5872 C 293.959 397.9903 295.9071 399.9384 298.3101 399.9384 L 355.0625 399.9384 C 357.4655 399.9384 359.4136 397.9903 359.4136 395.5872 L 359.4136 378.1832 C 359.4136 375.7801 357.4655 373.8321 355.0625 373.8321 L 298.3101 373.8321 C 295.9071 373.8321 293.959 375.7801 293.959 378.1832 Z " fill="#2e75b6"/>
<path transform="matrix(.00007874016,0,0,.00007874016,293.959,140.06162)" stroke-width="12700" stroke-linecap="butt" stroke-miterlimit="8" stroke-linejoin="miter" fill="none" stroke="#000000" d="M 0 55259.24 C 0 24740.4 24740.35 0 55259.11 0 L 776013.9 0 C 806532.7 0 831273 24740.4 831273 55259.24 L 831273 276290.8 C 831273 306809.6 806532.7 331550 776013.9 331550 L 55259.11 331550 C 24740.35 331550 0 306809.6 0 276290.8 Z "/>
<text fill="#ffffff" xml:space="preserve" transform="matrix(.24 0 -0 .24 312.0613 697.68)" font-size="58.33333" font-family="Calibri" font-weight="bold"><tspan y="-2250" x="0 47.39583 76.06666 90.67915">main</tspan></text>
<path transform="matrix(1,0,0,-1,0,540)" d="M 381.1658 395.5872 C 381.1658 397.9903 383.1138 399.9384 385.5169 399.9384 L 442.2692 399.9384 C 444.6723 399.9384 446.6203 397.9903 446.6203 395.5872 L 446.6203 378.1832 C 446.6203 375.7801 444.6723 373.8321 442.2692 373.8321 L 385.5169 373.8321 C 383.1138 373.8321 381.1658 375.7801 381.1658 378.1832 Z " fill="#2e75b6"/>
<path transform="matrix(.00007874016,0,0,.00007874016,381.1658,140.06162)" stroke-width="12700" stroke-linecap="butt" stroke-miterlimit="8" stroke-linejoin="miter" fill="none" stroke="#000000" d="M 0 55259.24 C 0 24740.4 24740.35 0 55259.11 0 L 776013.9 0 C 806532.7 0 831273 24740.4 831273 55259.24 L 831273 276290.8 C 831273 306809.6 806532.7 331550 776013.9 331550 L 55259.11 331550 C 24740.35 331550 0 306809.6 0 276290.8 Z "/>
<text fill="#ffffff" xml:space="preserve" transform="matrix(.24 0 -0 .24 393.003 697.68)" font-size="58.33333" font-family="Calibri" font-weight="bold"><tspan y="-2250" x="0 24.144165 52.254999 72.02416 100.659999 115.237499">catalo</tspan></text>
<text fill="#ffffff" xml:space="preserve" transform="matrix(.24 0 -0 .24 428.158 697.68)" font-size="58.33333" font-family="Calibri" font-weight="bold"><tspan y="-2250" x="0">g</tspan></text>
<path transform="matrix(1,0,0,-1,0,540)" d="M 177.9429 387.2405 L 198.2237 387.2404 L 198.2237 386.7404 L 177.9429 386.7405 Z M 197.2237 389.9904 L 203.2237 386.9904 L 197.2237 383.9904 Z " fill="#4472c4"/>
<path transform="matrix(1,0,0,-1,0,540)" d="M 268.6783 387.1352 L 288.9591 387.1351 L 288.9591 386.6351 L 268.6783 386.6352 Z M 287.9591 389.8851 L 293.9591 386.8851 L 287.959 383.8851 Z " fill="#4472c4"/>
<path transform="matrix(1,0,0,-1,0,540)" d="M 359.4136 387.1976 L 376.1657 387.1975 L 376.1657 386.6975 L 359.4136 386.6976 Z M 375.1658 389.9475 L 381.1657 386.9475 L 375.1657 383.9475 Z " fill="#4472c4"/>
</g>
</svg>
